<svg xmlns="http://www.w3.org/2000/svg" width="860" height="300" viewBox="0 0 860 300">
  <title>qwerty-ll: commit oscilloscope</title>
  <defs><clipPath id="frame"><rect width="860" height="300" rx="16"/></clipPath><clipPath id="screen"><rect x="22" y="22" width="650" height="256" rx="18"/></clipPath><linearGradient id="body" x1="0" y1="0" x2="0" y2="1"><stop offset="0" stop-color="#3a3f47"/><stop offset=".08" stop-color="#2a2e35"/><stop offset="1" stop-color="#15171b"/></linearGradient><radialGradient id="crt" cx=".5" cy=".5" r=".7"><stop offset="0" stop-color="#08200f"/><stop offset=".7" stop-color="#041208"/><stop offset="1" stop-color="#010502"/></radialGradient><radialGradient id="vignette" cx=".5" cy=".5" r=".75"><stop offset=".55" stop-color="#000" stop-opacity="0"/><stop offset="1" stop-color="#000" stop-opacity=".75"/></radialGradient><linearGradient id="glass" x1="0" y1="0" x2="1" y2="1"><stop offset="0" stop-color="#fff" stop-opacity=".09"/><stop offset=".35" stop-color="#fff" stop-opacity="0"/></linearGradient><pattern id="scan" width="4" height="3" patternUnits="userSpaceOnUse"><rect width="4" height="1" fill="#000" opacity=".35"/></pattern><filter id="phos" x="-10%" y="-30%" width="120%" height="160%"><feGaussianBlur stdDeviation="3.2" result="b"/><feMerge><feMergeNode in="b"/><feMergeNode in="b"/><feMergeNode in="SourceGraphic"/></feMerge></filter><filter id="beam" x="-300%" y="-300%" width="700%" height="700%"><feGaussianBlur stdDeviation="4" result="b"/><feMerge><feMergeNode in="b"/><feMergeNode in="b"/><feMergeNode in="SourceGraphic"/></feMerge></filter><radialGradient id="knob" cx=".35" cy=".3" r=".8"><stop offset="0" stop-color="#9aa1ab"/><stop offset=".5" stop-color="#4b5058"/><stop offset="1" stop-color="#1c1f24"/></radialGradient></defs>
  <style>
    .m{animation-duration:13.200s;animation-iteration-count:infinite;animation-timing-function:linear;animation-fill-mode:both}
    .scr{font:11px ui-monospace,SFMono-Regular,Menlo,Consolas,"Liberation Mono",monospace;fill:#46ff9a;opacity:.8;letter-spacing:.5px}
    .pk{font-weight:bold;opacity:1}
    .brand{font:bold 15px ui-monospace,SFMono-Regular,Menlo,Consolas,"Liberation Mono",monospace;fill:#e9ecef;letter-spacing:3px}
    .cap{font:9px ui-monospace,SFMono-Regular,Menlo,Consolas,"Liberation Mono",monospace;fill:#adb5bd;letter-spacing:1px}
    @keyframes trace{0.0000%{stroke-dashoffset:1;opacity:1}3.0303%{stroke-dashoffset:1;opacity:1}71.2121%{stroke-dashoffset:0;opacity:1}90.9091%{stroke-dashoffset:0;opacity:1}100.0000%{stroke-dashoffset:0;opacity:0}}
@keyframes beam{0.0000%{transform:translate(40px,203.9px);opacity:0}3.0152%{transform:translate(40px,203.9px);opacity:0}3.0303%{transform:translate(40px,203.9px);opacity:1}3.4564%{transform:translate(47.5px,203.3px);opacity:1}3.8826%{transform:translate(55.9px,204.5px);opacity:1}4.3087%{transform:translate(62.6px,201.7px);opacity:1}4.7348%{transform:translate(70.1px,202.5px);opacity:1}5.1610%{transform:translate(76.8px,202.9px);opacity:1}5.5871%{transform:translate(84.3px,203.8px);opacity:1}6.0133%{transform:translate(92.7px,196.1px);opacity:1}6.4394%{transform:translate(96px,186.7px);opacity:1}6.8655%{transform:translate(98.6px,188.2px);opacity:1}7.2917%{transform:translate(101.9px,200.2px);opacity:1}7.7178%{transform:translate(107.8px,204.6px);opacity:1}8.1439%{transform:translate(115.3px,204.5px);opacity:1}8.5701%{transform:translate(121.1px,196.8px);opacity:1}8.9962%{transform:translate(122.8px,187.5px);opacity:1}9.4223%{transform:translate(124.5px,167.6px);opacity:1}9.8485%{transform:translate(126.2px,159.1px);opacity:1}10.2746%{transform:translate(127.8px,155.8px);opacity:1}10.7008%{transform:translate(129.5px,171.8px);opacity:1}11.1269%{transform:translate(130.3px,180.8px);opacity:1}11.5530%{transform:translate(132px,194.1px);opacity:1}11.9792%{transform:translate(134.5px,185.2px);opacity:1}12.4053%{transform:translate(137px,172.6px);opacity:1}12.8314%{transform:translate(142.9px,173px);opacity:1}13.2576%{transform:translate(145.4px,180.1px);opacity:1}13.6837%{transform:translate(148.7px,197.5px);opacity:1}14.1098%{transform:translate(152.1px,202.3px);opacity:1}14.5360%{transform:translate(158.8px,202.7px);opacity:1}14.9621%{transform:translate(166.3px,203.2px);opacity:1}15.3883%{transform:translate(174.7px,202.1px);opacity:1}15.8144%{transform:translate(181.4px,204.9px);opacity:1}16.2405%{transform:translate(188.9px,204.2px);opacity:1}16.6667%{transform:translate(195.6px,203.7px);opacity:1}17.0928%{transform:translate(203.1px,202.9px);opacity:1}17.5189%{transform:translate(210.6px,201.8px);opacity:1}17.9451%{transform:translate(218.2px,201.8px);opacity:1}18.3712%{transform:translate(224.9px,203.3px);opacity:1}18.7973%{transform:translate(232.4px,203.2px);opacity:1}19.2235%{transform:translate(239.1px,204.5px);opacity:1}19.6496%{transform:translate(247.5px,205.1px);opacity:1}20.0758%{transform:translate(255px,204.6px);opacity:1}20.5019%{transform:translate(261.7px,203.3px);opacity:1}20.9280%{transform:translate(269.2px,203.1px);opacity:1}21.3542%{transform:translate(275.9px,202.6px);opacity:1}21.7803%{transform:translate(284.3px,201.5px);opacity:1}22.2064%{transform:translate(291px,203.9px);opacity:1}22.6326%{transform:translate(298.5px,203.4px);opacity:1}23.0587%{transform:translate(305.2px,204.7px);opacity:1}23.4848%{transform:translate(312.7px,203.5px);opacity:1}23.9110%{transform:translate(320.2px,202.5px);opacity:1}24.3371%{transform:translate(327.8px,202.7px);opacity:1}24.7633%{transform:translate(331.9px,197.2px);opacity:1}25.1894%{transform:translate(334.5px,178.7px);opacity:1}25.6155%{transform:translate(335.3px,170.8px);opacity:1}26.0417%{transform:translate(337px,157.5px);opacity:1}26.4678%{transform:translate(338.6px,156.8px);opacity:1}26.8939%{transform:translate(340.3px,169.4px);opacity:1}27.3201%{transform:translate(341.1px,180.7px);opacity:1}27.7462%{transform:translate(343.7px,172.8px);opacity:1}28.1723%{transform:translate(345.3px,157.9px);opacity:1}28.5985%{transform:translate(346.2px,149.5px);opacity:1}29.0246%{transform:translate(348.7px,150.8px);opacity:1}29.4508%{transform:translate(349.5px,158.3px);opacity:1}29.8769%{transform:translate(351.2px,173.3px);opacity:1}30.3030%{transform:translate(352.9px,192.6px);opacity:1}30.7292%{transform:translate(354.5px,198.2px);opacity:1}31.1553%{transform:translate(359.5px,204.1px);opacity:1}31.5814%{transform:translate(367.1px,202.6px);opacity:1}32.0076%{transform:translate(370.4px,191.1px);opacity:1}32.4337%{transform:translate(372.9px,175.4px);opacity:1}32.8598%{transform:translate(373.8px,161.4px);opacity:1}33.2860%{transform:translate(374.6px,149.8px);opacity:1}33.7121%{transform:translate(378px,150px);opacity:1}34.1383%{transform:translate(378.8px,162.9px);opacity:1}34.5644%{transform:translate(379.6px,179.1px);opacity:1}34.9905%{transform:translate(381.3px,193.1px);opacity:1}35.4167%{transform:translate(383px,204.5px);opacity:1}35.8428%{transform:translate(388.8px,201px);opacity:1}36.2689%{transform:translate(392.2px,189.9px);opacity:1}36.6951%{transform:translate(397.2px,190.9px);opacity:1}37.1212%{transform:translate(401.4px,202.8px);opacity:1}37.5473%{transform:translate(408.1px,202.4px);opacity:1}37.9735%{transform:translate(415.6px,199px);opacity:1}38.3996%{transform:translate(419.8px,187.7px);opacity:1}38.8258%{transform:translate(422.3px,172.8px);opacity:1}39.2519%{transform:translate(424px,160.7px);opacity:1}39.6780%{transform:translate(425.6px,150.3px);opacity:1}40.1042%{transform:translate(428.1px,162.5px);opacity:1}40.5303%{transform:translate(429.8px,178.2px);opacity:1}40.9564%{transform:translate(431.5px,189.4px);opacity:1}41.3826%{transform:translate(434.8px,202.3px);opacity:1}41.8087%{transform:translate(439.9px,201.7px);opacity:1}42.2348%{transform:translate(446.5px,199.7px);opacity:1}42.6610%{transform:translate(449.1px,186px);opacity:1}43.0871%{transform:translate(452.4px,177px);opacity:1}43.5133%{transform:translate(454.9px,192.1px);opacity:1}43.9394%{transform:translate(457.4px,201.6px);opacity:1}44.3655%{transform:translate(464.9px,204.9px);opacity:1}44.7917%{transform:translate(472.5px,203.9px);opacity:1}45.2178%{transform:translate(479.2px,202.8px);opacity:1}45.6439%{transform:translate(485.9px,202.5px);opacity:1}46.0701%{transform:translate(494.2px,202px);opacity:1}46.4962%{transform:translate(501.8px,202px);opacity:1}46.9223%{transform:translate(508.4px,204.4px);opacity:1}47.3485%{transform:translate(513.5px,191px);opacity:1}47.7746%{transform:translate(518.5px,197px);opacity:1}48.2008%{transform:translate(523.5px,192.7px);opacity:1}48.6269%{transform:translate(528.5px,197.9px);opacity:1}49.0530%{transform:translate(535.2px,204.6px);opacity:1}49.4792%{transform:translate(541.9px,200px);opacity:1}49.9053%{transform:translate(546.9px,191.5px);opacity:1}50.3314%{transform:translate(551.9px,200.6px);opacity:1}50.7576%{transform:translate(557.8px,198.1px);opacity:1}51.1837%{transform:translate(562.8px,191.7px);opacity:1}51.6098%{transform:translate(564.5px,177.4px);opacity:1}52.0360%{transform:translate(566.2px,155.6px);opacity:1}52.4621%{transform:translate(567px,141.7px);opacity:1}52.8883%{transform:translate(567.8px,113.3px);opacity:1}53.3144%{transform:translate(567.8px,113.3px);opacity:1}53.7405%{transform:translate(567.8px,113.3px);opacity:1}54.1667%{transform:translate(568.7px,98.7px);opacity:1}54.5928%{transform:translate(570.3px,87.8px);opacity:1}55.0189%{transform:translate(572.9px,103.4px);opacity:1}55.4451%{transform:translate(572.9px,103.4px);opacity:1}55.8712%{transform:translate(573.7px,113.9px);opacity:1}56.2973%{transform:translate(575.4px,139.5px);opacity:1}56.7235%{transform:translate(575.4px,139.5px);opacity:1}57.1496%{transform:translate(576.2px,155.7px);opacity:1}57.5758%{transform:translate(577px,174.4px);opacity:1}58.0019%{transform:translate(577.9px,180.3px);opacity:1}58.4280%{transform:translate(578.7px,194.3px);opacity:1}58.8542%{transform:translate(580.4px,202.6px);opacity:1}59.2803%{transform:translate(587.9px,201.6px);opacity:1}59.7064%{transform:translate(592.9px,194.3px);opacity:1}60.1326%{transform:translate(594.6px,177.8px);opacity:1}60.5587%{transform:translate(595.4px,166.1px);opacity:1}60.9848%{transform:translate(596.3px,154.8px);opacity:1}61.4110%{transform:translate(598px,136.8px);opacity:1}61.8371%{transform:translate(598.8px,128.3px);opacity:1}62.2633%{transform:translate(600.5px,148.1px);opacity:1}62.6894%{transform:translate(601.3px,156.3px);opacity:1}63.1155%{transform:translate(602.1px,169.8px);opacity:1}63.5417%{transform:translate(603px,178.8px);opacity:1}63.9678%{transform:translate(603.8px,190px);opacity:1}64.3939%{transform:translate(605.5px,201.8px);opacity:1}64.8201%{transform:translate(613.8px,203.4px);opacity:1}65.2462%{transform:translate(620.5px,202.6px);opacity:1}65.6723%{transform:translate(623.9px,191.7px);opacity:1}66.0985%{transform:translate(628.1px,179.2px);opacity:1}66.5246%{transform:translate(632.3px,182.5px);opacity:1}66.9508%{transform:translate(634.8px,195.1px);opacity:1}67.3769%{transform:translate(638.1px,198.5px);opacity:1}67.8030%{transform:translate(640.6px,188.3px);opacity:1}68.2292%{transform:translate(641.5px,175.5px);opacity:1}68.6553%{transform:translate(643.1px,155.2px);opacity:1}69.0814%{transform:translate(645.6px,143.4px);opacity:1}69.5076%{transform:translate(646.5px,149.9px);opacity:1}69.9337%{transform:translate(648.1px,167.9px);opacity:1}70.3598%{transform:translate(649.8px,162px);opacity:1}70.7860%{transform:translate(651.5px,155.9px);opacity:1}71.2121%{transform:translate(654px,151.4px);opacity:1}72.3485%{transform:translate(654px,151.4px);opacity:0}100.0000%{transform:translate(654px,151.4px);opacity:0}}
@keyframes pk0{0.0000%{opacity:0}54.6535%{opacity:0}54.6687%{opacity:1}90.9091%{opacity:1}100.0000%{opacity:0}}
@keyframes pk1{0.0000%{opacity:0}33.5267%{opacity:0}33.5418%{opacity:1}90.9091%{opacity:1}100.0000%{opacity:0}}
@keyframes pk2{0.0000%{opacity:0}10.2036%{opacity:0}10.2187%{opacity:1}90.9091%{opacity:1}100.0000%{opacity:0}}
@keyframes trig{0.0000%{opacity:0}3.0152%{opacity:0}3.0303%{opacity:1}71.1970%{opacity:1}71.2121%{opacity:0}100.0000%{opacity:0}}
@keyframes stop{0.0000%{opacity:0}71.1970%{opacity:0}71.2121%{opacity:1}98.4697%{opacity:1}98.4848%{opacity:0}100.0000%{opacity:0}}
@keyframes blink{50%{opacity:.2}}
@keyframes roll{from{transform:translateY(0)}to{transform:translateY(256px)}}@keyframes flicker{0%,100%{opacity:1}50%{opacity:.94}}
@keyframes turn{0%,100%{transform:rotate(-40deg)}50%{transform:rotate(55deg)}}@keyframes turn2{0%,100%{transform:rotate(20deg)}50%{transform:rotate(-25deg)}}</style>
  <g clip-path="url(#frame)">
  <rect width="860" height="300" fill="url(#body)"/>
<rect x="14" y="14" width="666" height="272" rx="24" fill="#0b0c0e" stroke="#4a4f57" stroke-width="1.5"/>
<g clip-path="url(#screen)" style="animation:flicker .12s linear infinite"><rect x="22" y="22" width="650" height="256" fill="url(#crt)"/>
<g stroke="#46ff9a" stroke-opacity=".13" stroke-width="1"><line x1="40" y1="52" x2="40" y2="246"/><line x1="101.4" y1="52" x2="101.4" y2="246"/><line x1="162.8" y1="52" x2="162.8" y2="246"/><line x1="224.2" y1="52" x2="224.2" y2="246"/><line x1="285.6" y1="52" x2="285.6" y2="246"/><line x1="347" y1="52" x2="347" y2="246"/><line x1="408.4" y1="52" x2="408.4" y2="246"/><line x1="469.8" y1="52" x2="469.8" y2="246"/><line x1="531.2" y1="52" x2="531.2" y2="246"/><line x1="592.6" y1="52" x2="592.6" y2="246"/><line x1="654" y1="52" x2="654" y2="246"/><line x1="40" y1="52" x2="654" y2="52"/><line x1="40" y1="76.3" x2="654" y2="76.3"/><line x1="40" y1="100.5" x2="654" y2="100.5"/><line x1="40" y1="124.8" x2="654" y2="124.8"/><line x1="40" y1="149" x2="654" y2="149"/><line x1="40" y1="173.3" x2="654" y2="173.3"/><line x1="40" y1="197.5" x2="654" y2="197.5"/><line x1="40" y1="221.8" x2="654" y2="221.8"/><line x1="40" y1="246" x2="654" y2="246"/></g><g stroke="#46ff9a" stroke-opacity=".3" stroke-width="1"><line x1="40" y1="201.3" x2="40" y2="205.3"/><line x1="52.3" y1="201.3" x2="52.3" y2="205.3"/><line x1="64.6" y1="201.3" x2="64.6" y2="205.3"/><line x1="76.8" y1="201.3" x2="76.8" y2="205.3"/><line x1="89.1" y1="201.3" x2="89.1" y2="205.3"/><line x1="101.4" y1="201.3" x2="101.4" y2="205.3"/><line x1="113.7" y1="201.3" x2="113.7" y2="205.3"/><line x1="126" y1="201.3" x2="126" y2="205.3"/><line x1="138.2" y1="201.3" x2="138.2" y2="205.3"/><line x1="150.5" y1="201.3" x2="150.5" y2="205.3"/><line x1="162.8" y1="201.3" x2="162.8" y2="205.3"/><line x1="175.1" y1="201.3" x2="175.1" y2="205.3"/><line x1="187.4" y1="201.3" x2="187.4" y2="205.3"/><line x1="199.6" y1="201.3" x2="199.6" y2="205.3"/><line x1="211.9" y1="201.3" x2="211.9" y2="205.3"/><line x1="224.2" y1="201.3" x2="224.2" y2="205.3"/><line x1="236.5" y1="201.3" x2="236.5" y2="205.3"/><line x1="248.8" y1="201.3" x2="248.8" y2="205.3"/><line x1="261" y1="201.3" x2="261" y2="205.3"/><line x1="273.3" y1="201.3" x2="273.3" y2="205.3"/><line x1="285.6" y1="201.3" x2="285.6" y2="205.3"/><line x1="297.9" y1="201.3" x2="297.9" y2="205.3"/><line x1="310.2" y1="201.3" x2="310.2" y2="205.3"/><line x1="322.4" y1="201.3" x2="322.4" y2="205.3"/><line x1="334.7" y1="201.3" x2="334.7" y2="205.3"/><line x1="347" y1="201.3" x2="347" y2="205.3"/><line x1="359.3" y1="201.3" x2="359.3" y2="205.3"/><line x1="371.6" y1="201.3" x2="371.6" y2="205.3"/><line x1="383.8" y1="201.3" x2="383.8" y2="205.3"/><line x1="396.1" y1="201.3" x2="396.1" y2="205.3"/><line x1="408.4" y1="201.3" x2="408.4" y2="205.3"/><line x1="420.7" y1="201.3" x2="420.7" y2="205.3"/><line x1="433" y1="201.3" x2="433" y2="205.3"/><line x1="445.2" y1="201.3" x2="445.2" y2="205.3"/><line x1="457.5" y1="201.3" x2="457.5" y2="205.3"/><line x1="469.8" y1="201.3" x2="469.8" y2="205.3"/><line x1="482.1" y1="201.3" x2="482.1" y2="205.3"/><line x1="494.4" y1="201.3" x2="494.4" y2="205.3"/><line x1="506.6" y1="201.3" x2="506.6" y2="205.3"/><line x1="518.9" y1="201.3" x2="518.9" y2="205.3"/><line x1="531.2" y1="201.3" x2="531.2" y2="205.3"/><line x1="543.5" y1="201.3" x2="543.5" y2="205.3"/><line x1="555.8" y1="201.3" x2="555.8" y2="205.3"/><line x1="568" y1="201.3" x2="568" y2="205.3"/><line x1="580.3" y1="201.3" x2="580.3" y2="205.3"/><line x1="592.6" y1="201.3" x2="592.6" y2="205.3"/><line x1="604.9" y1="201.3" x2="604.9" y2="205.3"/><line x1="617.2" y1="201.3" x2="617.2" y2="205.3"/><line x1="629.4" y1="201.3" x2="629.4" y2="205.3"/><line x1="641.7" y1="201.3" x2="641.7" y2="205.3"/><line x1="654" y1="201.3" x2="654" y2="205.3"/><line x1="345" y1="52" x2="349" y2="52"/><line x1="345" y1="56.9" x2="349" y2="56.9"/><line x1="345" y1="61.7" x2="349" y2="61.7"/><line x1="345" y1="66.5" x2="349" y2="66.5"/><line x1="345" y1="71.4" x2="349" y2="71.4"/><line x1="345" y1="76.3" x2="349" y2="76.3"/><line x1="345" y1="81.1" x2="349" y2="81.1"/><line x1="345" y1="86" x2="349" y2="86"/><line x1="345" y1="90.8" x2="349" y2="90.8"/><line x1="345" y1="95.7" x2="349" y2="95.7"/><line x1="345" y1="100.5" x2="349" y2="100.5"/><line x1="345" y1="105.3" x2="349" y2="105.3"/><line x1="345" y1="110.2" x2="349" y2="110.2"/><line x1="345" y1="115" x2="349" y2="115"/><line x1="345" y1="119.9" x2="349" y2="119.9"/><line x1="345" y1="124.8" x2="349" y2="124.8"/><line x1="345" y1="129.6" x2="349" y2="129.6"/><line x1="345" y1="134.4" x2="349" y2="134.4"/><line x1="345" y1="139.3" x2="349" y2="139.3"/><line x1="345" y1="144.2" x2="349" y2="144.2"/><line x1="345" y1="149" x2="349" y2="149"/><line x1="345" y1="153.8" x2="349" y2="153.8"/><line x1="345" y1="158.7" x2="349" y2="158.7"/><line x1="345" y1="163.6" x2="349" y2="163.6"/><line x1="345" y1="168.4" x2="349" y2="168.4"/><line x1="345" y1="173.3" x2="349" y2="173.3"/><line x1="345" y1="178.1" x2="349" y2="178.1"/><line x1="345" y1="182.9" x2="349" y2="182.9"/><line x1="345" y1="187.8" x2="349" y2="187.8"/><line x1="345" y1="192.7" x2="349" y2="192.7"/><line x1="345" y1="197.5" x2="349" y2="197.5"/><line x1="345" y1="202.3" x2="349" y2="202.3"/><line x1="345" y1="207.2" x2="349" y2="207.2"/><line x1="345" y1="212.1" x2="349" y2="212.1"/><line x1="345" y1="216.9" x2="349" y2="216.9"/><line x1="345" y1="221.8" x2="349" y2="221.8"/><line x1="345" y1="226.6" x2="349" y2="226.6"/><line x1="345" y1="231.4" x2="349" y2="231.4"/><line x1="345" y1="236.3" x2="349" y2="236.3"/><line x1="345" y1="241.2" x2="349" y2="241.2"/><line x1="345" y1="246" x2="349" y2="246"/></g>
<line x1="40" y1="203.3" x2="654" y2="203.3" stroke="#46ff9a" stroke-opacity=".25" stroke-dasharray="2 3"/>
<text x="45" y="262" class="scr" text-anchor="middle">OCT</text>
<text x="96.9" y="262" class="scr" text-anchor="middle">NOV</text>
<text x="147.1" y="262" class="scr" text-anchor="middle">DEC</text>
<text x="198.9" y="262" class="scr" text-anchor="middle">JAN</text>
<text x="250.8" y="262" class="scr" text-anchor="middle">FEB</text>
<text x="297.6" y="262" class="scr" text-anchor="middle">MAR</text>
<text x="349.5" y="262" class="scr" text-anchor="middle">APR</text>
<text x="399.7" y="262" class="scr" text-anchor="middle">MAY</text>
<text x="451.6" y="262" class="scr" text-anchor="middle">JUN</text>
<text x="501.8" y="262" class="scr" text-anchor="middle">JUL</text>
<text x="553.6" y="262" class="scr" text-anchor="middle">AUG</text>
<text x="605.5" y="262" class="scr" text-anchor="middle">SEP</text>
<path d="M40 203.9L40.8 203.7L41.7 204.4L42.5 202L43.3 202.5L44.2 204.1L45 203.8L45.9 204L46.7 201.6L47.5 203.3L48.4 204.1L49.2 203.9L50 203.3L50.9 201.6L51.7 204.1L52.5 203.9L53.4 203.9L54.2 202.6L55.1 202L55.9 204.5L56.7 203.7L57.6 203.8L58.4 202L59.2 202.8L60.1 204.7L60.9 203.5L61.7 203.4L62.6 201.7L63.4 203.7L64.3 204.4L65.1 203.3L65.9 203L66.8 201.8L67.6 204.5L68.4 204L69.3 203.2L70.1 202.5L71 202.4L71.8 205L72.6 203.4L73.5 203.1L74.3 202.2L75.1 203.2L76 205L76.8 202.9L77.6 203L78.5 202.1L79.3 204.1L80.2 204.5L81 202.6L81.8 202.9L82.7 202.3L83.5 204.8L84.3 203.8L85.2 202.5L86 202.8L86.8 202.9L87.7 205.1L88.5 203L89.4 202.6L90.2 202.7L91 201.5L91.9 201.9L92.7 196.1L93.5 194L94.4 190.4L95.2 189.5L96 186.7L96.9 181.8L97.7 185.7L98.6 188.2L99.4 192.2L100.2 194.6L101.1 195.7L101.9 200.2L102.7 201.2L103.6 204.9L104.4 202.6L105.2 202.4L106.1 203.4L106.9 203.8L107.8 204.6L108.6 201.9L109.4 202.9L110.3 203.5L111.1 204.3L111.9 203.9L112.8 201.6L113.6 203.4L114.4 203.5L115.3 204.5L116.1 203.1L117 201.8L117.8 203.8L118.6 203.7L119.5 204.5L120.3 202.2L121.1 196.8L122 196.5L122.8 187.5L123.7 180.9L124.5 167.6L125.3 163.7L126.2 159.1L127 150.9L127.8 155.8L128.7 162L129.5 171.8L130.3 180.8L131.2 186.4L132 194.1L132.9 191.7L133.7 192.1L134.5 185.2L135.4 182.3L136.2 177.2L137 172.6L137.9 174.2L138.7 174.9L139.5 175.2L140.4 171.3L141.2 171.7L142.1 174L142.9 173L143.7 170.2L144.6 171.7L145.4 180.1L146.2 185.1L147.1 189.6L147.9 192.2L148.7 197.5L149.6 201.6L150.4 203.6L151.3 203.1L152.1 202.3L152.9 203L153.8 205L154.6 203.1L155.4 203.1L156.3 202.1L157.1 203.9L157.9 204.7L158.8 202.7L159.6 202.9L160.5 202.3L161.3 204.7L162.1 204L163 202.5L163.8 202.8L164.6 202.7L165.5 205.1L166.3 203.2L167.1 202.6L168 202.7L168.8 203.4L169.7 205L170.5 202.5L171.3 202.8L172.2 202.7L173 204.1L173.8 204.5L174.7 202.1L175.5 203L176.4 202.9L177.2 204.7L178 203.7L178.9 202L179.7 203.2L180.5 203.2L181.4 204.9L182.2 202.8L183 202.2L183.9 203.3L184.7 203.7L185.6 204.7L186.4 202L187.2 202.7L188.1 203.4L188.9 204.2L189.7 204.1L190.6 201.7L191.4 203.3L192.2 203.5L193.1 204.5L193.9 203.3L194.8 201.7L195.6 203.7L196.4 203.6L197.3 204.5L198.1 202.4L198.9 202.2L199.8 204L200.6 203.8L201.4 204.2L202.3 201.8L203.1 202.9L204 204.1L204.8 203.9L205.6 203.7L206.5 201.5L207.3 203.7L208.1 204L209 203.9L209.8 202.9L210.6 201.8L211.5 204.3L212.3 203.8L213.2 203.9L214 202.2L214.8 202.4L215.7 204.6L216.5 203.6L217.3 203.6L218.2 201.8L219 203.3L219.9 204.6L220.7 203.4L221.5 203.2L222.4 201.7L223.2 204.2L224 204.2L224.9 203.3L225.7 202.8L226.5 202.1L227.4 204.8L228.2 203.7L229.1 203.2L229.9 202.3L230.7 202.8L231.6 205L232.4 203.2L233.2 203.1L234.1 202.1L234.9 203.7L235.7 204.8L236.6 202.8L237.4 203L238.3 202.2L239.1 204.5L239.9 204.2L240.8 202.5L241.6 202.8L242.4 202.6L243.3 205L244.1 203.4L244.9 202.5L245.8 202.7L246.6 203.2L247.5 205.1L248.3 202.7L249.1 202.7L250 202.7L250.8 204L251.6 204.7L252.5 202.1L253.3 202.9L254.1 202.8L255 204.6L255.8 203.9L256.7 202L257.5 203.1L258.3 203.2L259.2 204.9L260 203L260.8 202.1L261.7 203.3L262.5 203.6L263.3 204.8L264.2 202.2L265 202.6L265.9 203.4L266.7 204L267.5 204.3L268.4 201.7L269.2 203.1L270 203.5L270.9 204.4L271.7 203.5L272.6 201.7L273.4 203.6L274.2 203.6L275.1 204.5L275.9 202.6L276.7 202L277.6 204L278.4 203.7L279.2 204.3L280.1 201.9L280.9 202.7L281.8 204.1L282.6 203.9L283.4 203.8L284.3 201.5L285.1 203.5L285.9 204.1L286.8 203.9L287.6 203.1L288.4 201.7L289.3 204.2L290.1 203.9L291 203.9L291.8 202.4L292.6 202.2L293.5 204.6L294.3 203.6L295.1 203.7L296 201.9L296.8 203.1L297.6 204.6L298.5 203.4L299.3 203.3L300.2 201.7L301 204L301.8 204.4L302.7 203.3L303.5 202.9L304.3 202L305.2 204.7L306 203.9L306.8 203.2L307.7 202.4L308.5 202.6L309.4 205L310.2 203.3L311 203.1L311.9 202.2L312.7 203.5L313.5 204.9L314.4 202.8L315.2 203L316 202.2L316.9 204.3L317.7 204.4L318.6 202.6L319.4 202.9L320.2 202.5L321.1 204.9L321.9 203.6L322.7 202.5L323.6 202.8L324.4 203.1L325.3 205.1L326.1 202.8L326.9 202.6L327.8 202.7L328.6 203.8L329.4 204.8L330.3 202.2L331.1 202.9L331.9 197.2L332.8 196.9L333.6 187L334.5 178.7L335.3 170.8L336.1 163.7L337 157.5L337.8 150L338.6 156.8L339.5 164L340.3 169.4L341.1 180.7L342 181.2L342.8 183.5L343.7 172.8L344.5 164.4L345.3 157.9L346.2 149.5L347 144.9L347.8 140.8L348.7 150.8L349.5 158.3L350.3 161.8L351.2 173.3L352 181.5L352.9 192.6L353.7 193.5L354.5 198.2L355.4 201.3L356.2 203.7L357 204.4L357.9 202.1L358.7 202.5L359.5 204.1L360.4 203.8L361.2 204L362.1 201.6L362.9 203.3L363.7 204.1L364.6 203.9L365.4 203.3L366.2 201.6L367.1 202.6L367.9 201.8L368.7 199.4L369.6 196.6L370.4 191.1L371.3 189.3L372.1 179.7L372.9 175.4L373.8 161.4L374.6 149.8L375.4 147.3L376.3 145.3L377.1 149.4L378 150L378.8 162.9L379.6 179.1L380.5 184L381.3 193.1L382.1 195.2L383 204.5L383.8 204L384.6 203.2L385.5 202.6L386.3 202.4L387.2 205L388 203.4L388.8 201L389.7 199.2L390.5 196.9L391.3 196.3L392.2 189.9L393 187.9L393.8 185.4L394.7 184.3L395.5 186.3L396.4 187.4L397.2 190.9L398 193.7L398.9 198.5L399.7 200.8L400.5 200.4L401.4 202.8L402.2 202.9L403 205.1L403.9 203L404.7 202.6L405.6 202.7L406.4 203.6L407.2 204.9L408.1 202.4L408.9 202.8L409.7 202.8L410.6 204.3L411.4 204.3L412.2 202L413.1 203L413.9 201.5L414.8 202.7L415.6 199L416.4 196.1L417.3 194.9L418.1 192.3L418.9 191.2L419.8 187.7L420.6 185.1L421.4 182.5L422.3 172.8L423.1 168.4L424 160.7L424.8 153.3L425.6 150.3L426.5 152.7L427.3 160.7L428.1 162.5L429 168.6L429.8 178.2L430.7 185.3L431.5 189.4L432.3 190.5L433.2 197.6L434 199L434.8 202.3L435.7 200.7L436.5 202.3L437.3 204.1L438.2 203.8L439 204.1L439.9 201.7L440.7 203.1L441.5 204.1L442.4 203.9L443.2 203.5L444 201.5L444.9 203.9L445.7 201L446.5 199.7L447.4 194.2L448.2 190.4L449.1 186L449.9 180.9L450.7 180L451.6 176L452.4 177L453.2 181.7L454.1 186.4L454.9 192.1L455.7 192.5L456.6 199.3L457.4 201.6L458.3 203.3L459.1 203.1L459.9 201.8L460.8 204.4L461.6 204.1L462.4 203.2L463.3 202.7L464.1 202.2L464.9 204.9L465.8 203.6L466.6 203.1L467.5 202.3L468.3 203L469.1 205L470 203L470.8 203L471.6 202.1L472.5 203.9L473.3 204.7L474.1 202.7L475 202.9L475.8 202.3L476.7 204.7L477.5 204L478.3 202.5L479.2 202.8L480 202.7L480.8 205.1L481.7 203.2L482.5 202.5L483.4 202.7L484.2 203.4L485 205L485.9 202.5L486.7 202.7L487.5 202.8L488.4 204.1L489.2 204.5L490 202.1L490.9 203L491.7 202.9L492.6 204.7L493.4 203.7L494.2 202L495.1 203.2L495.9 203.3L496.7 204.9L497.6 202.8L498.4 202.2L499.2 203.4L500.1 203.7L500.9 204.7L501.8 202L502.6 202.7L503.4 203.5L504.3 204.1L505.1 204.1L505.9 201.6L506.8 203.3L507.6 203.6L508.4 204.4L509.3 201.8L510.1 199.6L511 199.3L511.8 197.7L512.6 195.9L513.5 191L514.3 189.3L515.1 191L516 191.9L516.8 192.8L517.6 192.5L518.5 197L519.3 199.4L520.2 200.9L521 199L521.8 195.6L522.7 195.2L523.5 192.7L524.3 191L525.2 189.7L526 190L526.9 193L527.7 194.5L528.5 197.9L529.4 197.8L530.2 200.3L531 203.2L531.9 203.6L532.7 203.6L533.5 201.8L534.4 203.3L535.2 204.6L536.1 203.4L536.9 203.2L537.7 201.7L538.6 204.2L539.4 204.3L540.2 203.2L541.1 201.3L541.9 200L542.7 200.3L543.6 197.8L544.4 193.8L545.3 191.3L546.1 191.1L546.9 191.5L547.8 190.1L548.6 192L549.4 193.8L550.3 197.7L551.1 200.4L551.9 200.6L552.8 201.5L553.6 202.2L554.5 204.5L555.3 204.2L556.1 201L557 200.7L557.8 198.1L558.6 199.1L559.5 195L560.3 191.7L561.1 189.8L562 189.4L562.8 191.7L563.7 188.5L564.5 177.4L565.3 171.1L566.2 155.6L567 141.7L567.8 113.3L568.7 98.7L569.5 96.6L570.3 87.8L571.2 81.7L572 83.8L572.9 103.4L573.7 113.9L574.5 123.4L575.4 139.5L576.2 155.7L577 174.4L577.9 180.3L578.7 194.3L579.6 195.3L580.4 202.6L581.2 203.5L582.1 204L582.9 204.3L583.7 201.7L584.6 203.1L585.4 203.5L586.2 204.4L587.1 203.5L587.9 201.6L588.8 203.7L589.6 203.6L590.4 204.5L591.3 200.5L592.1 199L592.9 194.3L593.8 190.7L594.6 177.8L595.4 166.1L596.3 154.8L597.1 147.4L598 136.8L598.8 128.3L599.6 136.8L600.5 148.1L601.3 156.3L602.1 169.8L603 178.8L603.8 190L604.6 195.3L605.5 201.8L606.3 202.4L607.2 202.4L608 202.2L608.8 204.6L609.7 203.6L610.5 203.7L611.3 201.9L612.2 203L613 204.7L613.8 203.4L614.7 203.3L615.5 201.7L616.4 204L617.2 204.4L618 203.2L618.9 202.9L619.7 200.5L620.5 202.6L621.4 199.4L622.2 197.2L623 193.2L623.9 191.7L624.7 191.2L625.6 186.1L626.4 183.4L627.2 181.5L628.1 179.2L628.9 175.9L629.7 174L630.6 176L631.4 178L632.3 182.5L633.1 187.3L633.9 192.3L634.8 195.1L635.6 198.8L636.4 202.3L637.3 203.6L638.1 198.5L638.9 197.2L639.8 189.6L640.6 188.3L641.5 175.5L642.3 165.1L643.1 155.2L644 152L644.8 151.8L645.6 143.4L646.5 149.9L647.3 160.6L648.1 167.9L649 171.3L649.8 162L650.7 160.7L651.5 155.9L652.3 148.7L653.2 147.4L654 151.4L654 151.4" fill="none" stroke="#46ff9a" stroke-width="1.2" opacity=".08"/>
<g filter="url(#phos)"><path d="M40 203.9L40.8 203.7L41.7 204.4L42.5 202L43.3 202.5L44.2 204.1L45 203.8L45.9 204L46.7 201.6L47.5 203.3L48.4 204.1L49.2 203.9L50 203.3L50.9 201.6L51.7 204.1L52.5 203.9L53.4 203.9L54.2 202.6L55.1 202L55.9 204.5L56.7 203.7L57.6 203.8L58.4 202L59.2 202.8L60.1 204.7L60.9 203.5L61.7 203.4L62.6 201.7L63.4 203.7L64.3 204.4L65.1 203.3L65.9 203L66.8 201.8L67.6 204.5L68.4 204L69.3 203.2L70.1 202.5L71 202.4L71.8 205L72.6 203.4L73.5 203.1L74.3 202.2L75.1 203.2L76 205L76.8 202.9L77.6 203L78.5 202.1L79.3 204.1L80.2 204.5L81 202.6L81.8 202.9L82.7 202.3L83.5 204.8L84.3 203.8L85.2 202.5L86 202.8L86.8 202.9L87.7 205.1L88.5 203L89.4 202.6L90.2 202.7L91 201.5L91.9 201.9L92.7 196.1L93.5 194L94.4 190.4L95.2 189.5L96 186.7L96.9 181.8L97.7 185.7L98.6 188.2L99.4 192.2L100.2 194.6L101.1 195.7L101.9 200.2L102.7 201.2L103.6 204.9L104.4 202.6L105.2 202.4L106.1 203.4L106.9 203.8L107.8 204.6L108.6 201.9L109.4 202.9L110.3 203.5L111.1 204.3L111.9 203.9L112.8 201.6L113.6 203.4L114.4 203.5L115.3 204.5L116.1 203.1L117 201.8L117.8 203.8L118.6 203.7L119.5 204.5L120.3 202.2L121.1 196.8L122 196.5L122.8 187.5L123.7 180.9L124.5 167.6L125.3 163.7L126.2 159.1L127 150.9L127.8 155.8L128.7 162L129.5 171.8L130.3 180.8L131.2 186.4L132 194.1L132.9 191.7L133.7 192.1L134.5 185.2L135.4 182.3L136.2 177.2L137 172.6L137.9 174.2L138.7 174.9L139.5 175.2L140.4 171.3L141.2 171.7L142.1 174L142.9 173L143.7 170.2L144.6 171.7L145.4 180.1L146.2 185.1L147.1 189.6L147.9 192.2L148.7 197.5L149.6 201.6L150.4 203.6L151.3 203.1L152.1 202.3L152.9 203L153.8 205L154.6 203.1L155.4 203.1L156.3 202.1L157.1 203.9L157.9 204.7L158.8 202.7L159.6 202.9L160.5 202.3L161.3 204.7L162.1 204L163 202.5L163.8 202.8L164.6 202.7L165.5 205.1L166.3 203.2L167.1 202.6L168 202.7L168.8 203.4L169.7 205L170.5 202.5L171.3 202.8L172.2 202.7L173 204.1L173.8 204.5L174.7 202.1L175.5 203L176.4 202.9L177.2 204.7L178 203.7L178.9 202L179.7 203.2L180.5 203.2L181.4 204.9L182.2 202.8L183 202.2L183.9 203.3L184.7 203.7L185.6 204.7L186.4 202L187.2 202.7L188.1 203.4L188.9 204.2L189.7 204.1L190.6 201.7L191.4 203.3L192.2 203.5L193.1 204.5L193.9 203.3L194.8 201.7L195.6 203.7L196.4 203.6L197.3 204.5L198.1 202.4L198.9 202.2L199.8 204L200.6 203.8L201.4 204.2L202.3 201.8L203.1 202.9L204 204.1L204.8 203.9L205.6 203.7L206.5 201.5L207.3 203.7L208.1 204L209 203.9L209.8 202.9L210.6 201.8L211.5 204.3L212.3 203.8L213.2 203.9L214 202.2L214.8 202.4L215.7 204.6L216.5 203.6L217.3 203.6L218.2 201.8L219 203.3L219.9 204.6L220.7 203.4L221.5 203.2L222.4 201.7L223.2 204.2L224 204.2L224.9 203.3L225.7 202.8L226.5 202.1L227.4 204.8L228.2 203.7L229.1 203.2L229.9 202.3L230.7 202.8L231.6 205L232.4 203.2L233.2 203.1L234.1 202.1L234.9 203.7L235.7 204.8L236.6 202.8L237.4 203L238.3 202.2L239.1 204.5L239.9 204.2L240.8 202.5L241.6 202.8L242.4 202.6L243.3 205L244.1 203.4L244.9 202.5L245.8 202.7L246.6 203.2L247.5 205.1L248.3 202.7L249.1 202.7L250 202.7L250.8 204L251.6 204.7L252.5 202.1L253.3 202.9L254.1 202.8L255 204.6L255.8 203.9L256.7 202L257.5 203.1L258.3 203.2L259.2 204.9L260 203L260.8 202.1L261.7 203.3L262.5 203.6L263.3 204.8L264.2 202.2L265 202.6L265.9 203.4L266.7 204L267.5 204.3L268.4 201.7L269.2 203.1L270 203.5L270.9 204.4L271.7 203.5L272.6 201.7L273.4 203.6L274.2 203.6L275.1 204.5L275.9 202.6L276.7 202L277.6 204L278.4 203.7L279.2 204.3L280.1 201.9L280.9 202.7L281.8 204.1L282.6 203.9L283.4 203.8L284.3 201.5L285.1 203.5L285.9 204.1L286.8 203.9L287.6 203.1L288.4 201.7L289.3 204.2L290.1 203.9L291 203.9L291.8 202.4L292.6 202.2L293.5 204.6L294.3 203.6L295.1 203.7L296 201.9L296.8 203.1L297.6 204.6L298.5 203.4L299.3 203.3L300.2 201.7L301 204L301.8 204.4L302.7 203.3L303.5 202.9L304.3 202L305.2 204.7L306 203.9L306.8 203.2L307.7 202.4L308.5 202.6L309.4 205L310.2 203.3L311 203.1L311.9 202.2L312.7 203.5L313.5 204.9L314.4 202.8L315.2 203L316 202.2L316.9 204.3L317.7 204.4L318.6 202.6L319.4 202.9L320.2 202.5L321.1 204.9L321.9 203.6L322.7 202.5L323.6 202.8L324.4 203.1L325.3 205.1L326.1 202.8L326.9 202.6L327.8 202.7L328.6 203.8L329.4 204.8L330.3 202.2L331.1 202.9L331.9 197.2L332.8 196.9L333.6 187L334.5 178.7L335.3 170.8L336.1 163.7L337 157.5L337.8 150L338.6 156.8L339.5 164L340.3 169.4L341.1 180.7L342 181.2L342.8 183.5L343.7 172.8L344.5 164.4L345.3 157.9L346.2 149.5L347 144.9L347.8 140.8L348.7 150.8L349.5 158.3L350.3 161.8L351.2 173.3L352 181.5L352.9 192.6L353.7 193.5L354.5 198.2L355.4 201.3L356.2 203.7L357 204.4L357.9 202.1L358.7 202.5L359.5 204.1L360.4 203.8L361.2 204L362.1 201.6L362.9 203.3L363.7 204.1L364.6 203.9L365.4 203.3L366.2 201.6L367.1 202.6L367.9 201.8L368.7 199.4L369.6 196.6L370.4 191.1L371.3 189.3L372.1 179.7L372.9 175.4L373.8 161.4L374.6 149.8L375.4 147.3L376.3 145.3L377.1 149.4L378 150L378.8 162.9L379.6 179.1L380.5 184L381.3 193.1L382.1 195.2L383 204.5L383.8 204L384.6 203.2L385.5 202.6L386.3 202.4L387.2 205L388 203.4L388.8 201L389.7 199.2L390.5 196.9L391.3 196.3L392.2 189.9L393 187.9L393.8 185.4L394.7 184.3L395.5 186.3L396.4 187.4L397.2 190.9L398 193.7L398.9 198.5L399.7 200.8L400.5 200.4L401.4 202.8L402.2 202.9L403 205.1L403.9 203L404.7 202.6L405.6 202.7L406.4 203.6L407.2 204.9L408.1 202.4L408.9 202.8L409.7 202.8L410.6 204.3L411.4 204.3L412.2 202L413.1 203L413.9 201.5L414.8 202.7L415.6 199L416.4 196.1L417.3 194.9L418.1 192.3L418.9 191.2L419.8 187.7L420.6 185.1L421.4 182.5L422.3 172.8L423.1 168.4L424 160.7L424.8 153.3L425.6 150.3L426.5 152.7L427.3 160.7L428.1 162.5L429 168.6L429.8 178.2L430.7 185.3L431.5 189.4L432.3 190.5L433.2 197.6L434 199L434.8 202.3L435.7 200.7L436.5 202.3L437.3 204.1L438.2 203.8L439 204.1L439.9 201.7L440.7 203.1L441.5 204.1L442.4 203.9L443.2 203.5L444 201.5L444.9 203.9L445.7 201L446.5 199.7L447.4 194.2L448.2 190.4L449.1 186L449.9 180.9L450.7 180L451.6 176L452.4 177L453.2 181.7L454.1 186.4L454.9 192.1L455.7 192.5L456.6 199.3L457.4 201.6L458.3 203.3L459.1 203.1L459.9 201.8L460.8 204.4L461.6 204.1L462.4 203.2L463.3 202.7L464.1 202.2L464.9 204.9L465.8 203.6L466.6 203.1L467.5 202.3L468.3 203L469.1 205L470 203L470.8 203L471.6 202.1L472.5 203.9L473.3 204.7L474.1 202.7L475 202.9L475.8 202.3L476.7 204.7L477.5 204L478.3 202.5L479.2 202.8L480 202.7L480.8 205.1L481.7 203.2L482.5 202.5L483.4 202.7L484.2 203.4L485 205L485.9 202.5L486.7 202.7L487.5 202.8L488.4 204.1L489.2 204.5L490 202.1L490.9 203L491.7 202.9L492.6 204.7L493.4 203.7L494.2 202L495.1 203.2L495.9 203.3L496.7 204.9L497.6 202.8L498.4 202.2L499.2 203.4L500.1 203.7L500.9 204.7L501.8 202L502.6 202.7L503.4 203.5L504.3 204.1L505.1 204.1L505.9 201.6L506.8 203.3L507.6 203.6L508.4 204.4L509.3 201.8L510.1 199.6L511 199.3L511.8 197.7L512.6 195.9L513.5 191L514.3 189.3L515.1 191L516 191.9L516.8 192.8L517.6 192.5L518.5 197L519.3 199.4L520.2 200.9L521 199L521.8 195.6L522.7 195.2L523.5 192.7L524.3 191L525.2 189.7L526 190L526.9 193L527.7 194.5L528.5 197.9L529.4 197.8L530.2 200.3L531 203.2L531.9 203.6L532.7 203.6L533.5 201.8L534.4 203.3L535.2 204.6L536.1 203.4L536.9 203.2L537.7 201.7L538.6 204.2L539.4 204.3L540.2 203.2L541.1 201.3L541.9 200L542.7 200.3L543.6 197.8L544.4 193.8L545.3 191.3L546.1 191.1L546.9 191.5L547.8 190.1L548.6 192L549.4 193.8L550.3 197.7L551.1 200.4L551.9 200.6L552.8 201.5L553.6 202.2L554.5 204.5L555.3 204.2L556.1 201L557 200.7L557.8 198.1L558.6 199.1L559.5 195L560.3 191.7L561.1 189.8L562 189.4L562.8 191.7L563.7 188.5L564.5 177.4L565.3 171.1L566.2 155.6L567 141.7L567.8 113.3L568.7 98.7L569.5 96.6L570.3 87.8L571.2 81.7L572 83.8L572.9 103.4L573.7 113.9L574.5 123.4L575.4 139.5L576.2 155.7L577 174.4L577.9 180.3L578.7 194.3L579.6 195.3L580.4 202.6L581.2 203.5L582.1 204L582.9 204.3L583.7 201.7L584.6 203.1L585.4 203.5L586.2 204.4L587.1 203.5L587.9 201.6L588.8 203.7L589.6 203.6L590.4 204.5L591.3 200.5L592.1 199L592.9 194.3L593.8 190.7L594.6 177.8L595.4 166.1L596.3 154.8L597.1 147.4L598 136.8L598.8 128.3L599.6 136.8L600.5 148.1L601.3 156.3L602.1 169.8L603 178.8L603.8 190L604.6 195.3L605.5 201.8L606.3 202.4L607.2 202.4L608 202.2L608.8 204.6L609.7 203.6L610.5 203.7L611.3 201.9L612.2 203L613 204.7L613.8 203.4L614.7 203.3L615.5 201.7L616.4 204L617.2 204.4L618 203.2L618.9 202.9L619.7 200.5L620.5 202.6L621.4 199.4L622.2 197.2L623 193.2L623.9 191.7L624.7 191.2L625.6 186.1L626.4 183.4L627.2 181.5L628.1 179.2L628.9 175.9L629.7 174L630.6 176L631.4 178L632.3 182.5L633.1 187.3L633.9 192.3L634.8 195.1L635.6 198.8L636.4 202.3L637.3 203.6L638.1 198.5L638.9 197.2L639.8 189.6L640.6 188.3L641.5 175.5L642.3 165.1L643.1 155.2L644 152L644.8 151.8L645.6 143.4L646.5 149.9L647.3 160.6L648.1 167.9L649 171.3L649.8 162L650.7 160.7L651.5 155.9L652.3 148.7L653.2 147.4L654 151.4L654 151.4" pathLength="1" stroke-dasharray="1 1" fill="none" stroke="#46ff9a" stroke-width="1.8" stroke-linejoin="round" class="m " style="animation-name:trace"/></g>
<circle r="2.6" fill="#eafff2" filter="url(#beam)" class="m " style="animation-name:beam"/>
<g class="m " style="animation-name:pk0">
      <path d="M570.3 81.8l-4 -7h8z" fill="#46ff9a"/>
      <text x="570.3" y="70.8" class="scr pk" text-anchor="middle">47 · AUG 11</text>
    </g>
<g class="m " style="animation-name:pk1">
      <path d="M376.3 139.3l-4 -7h8z" fill="#46ff9a"/>
      <text x="376.3" y="128.3" class="scr pk" text-anchor="middle">20 · APR 17</text>
    </g>
<g class="m " style="animation-name:pk2">
      <path d="M127 144.9l-4 -7h8z" fill="#46ff9a"/>
      <text x="127" y="133.9" class="scr pk" text-anchor="middle">14 · NOV 19</text>
    </g>
<text x="40" y="42" class="scr">CH1 √COMMITS  1D/PT  QWERTY-LL</text>
<text x="654" y="42" class="scr" text-anchor="end">Σ 296  MAX 47</text>
<g class="m " style="animation-name:trig"><text x="347" y="42" class="scr" text-anchor="middle" style="animation:blink .8s steps(1) infinite">● TRIG'D</text></g>
<g class="m " style="animation-name:stop"><text x="347" y="42" class="scr" text-anchor="middle">■ STOP</text></g>
<rect x="22" y="22" width="650" height="256" fill="url(#scan)"/>
<rect x="22" y="22" width="650" height="256" fill="url(#vignette)"/>
<rect x="22" y="22" width="650" height="256" fill="url(#glass)"/>
<rect x="22" y="22" width="650" height="12" fill="#46ff9a" opacity=".04" style="animation:roll 6s linear infinite"/></g>
<text x="772" y="40" class="brand" text-anchor="middle">GIT·SCOPE</text>
<text x="772" y="54" class="cap" text-anchor="middle">MODEL 2026</text>

    <text x="742" y="76" class="cap" text-anchor="middle">VOLTS/DIV</text>
    <line x1="728.6" y1="113.4" x2="726.4" y2="115.6" stroke="#7d848e" stroke-width="1"/><line x1="723.4" y1="103.7" x2="720.4" y2="104.3" stroke="#7d848e" stroke-width="1"/><line x1="724.4" y1="92.7" x2="721.7" y2="91.6" stroke="#7d848e" stroke-width="1"/><line x1="731.4" y1="84.2" x2="729.8" y2="81.7" stroke="#7d848e" stroke-width="1"/><line x1="742" y1="81" x2="742" y2="78" stroke="#7d848e" stroke-width="1"/><line x1="752.6" y1="84.2" x2="754.2" y2="81.7" stroke="#7d848e" stroke-width="1"/><line x1="759.6" y1="92.7" x2="762.3" y2="91.6" stroke="#7d848e" stroke-width="1"/><line x1="760.6" y1="103.7" x2="763.6" y2="104.3" stroke="#7d848e" stroke-width="1"/><line x1="755.4" y1="113.4" x2="757.6" y2="115.6" stroke="#7d848e" stroke-width="1"/>
    <circle cx="742" cy="100" r="16" fill="url(#knob)" stroke="#0b0c0e"/>
    <g style="transform-origin:742px 100px;transform:rotate(-30deg)"><line x1="742" y1="97" x2="742" y2="87" stroke="#f1f3f5" stroke-width="2" stroke-linecap="round"/></g>

    <text x="802" y="76" class="cap" text-anchor="middle">TIME/DIV</text>
    <line x1="788.6" y1="113.4" x2="786.4" y2="115.6" stroke="#7d848e" stroke-width="1"/><line x1="783.4" y1="103.7" x2="780.4" y2="104.3" stroke="#7d848e" stroke-width="1"/><line x1="784.4" y1="92.7" x2="781.7" y2="91.6" stroke="#7d848e" stroke-width="1"/><line x1="791.4" y1="84.2" x2="789.8" y2="81.7" stroke="#7d848e" stroke-width="1"/><line x1="802" y1="81" x2="802" y2="78" stroke="#7d848e" stroke-width="1"/><line x1="812.6" y1="84.2" x2="814.2" y2="81.7" stroke="#7d848e" stroke-width="1"/><line x1="819.6" y1="92.7" x2="822.3" y2="91.6" stroke="#7d848e" stroke-width="1"/><line x1="820.6" y1="103.7" x2="823.6" y2="104.3" stroke="#7d848e" stroke-width="1"/><line x1="815.4" y1="113.4" x2="817.6" y2="115.6" stroke="#7d848e" stroke-width="1"/>
    <circle cx="802" cy="100" r="16" fill="url(#knob)" stroke="#0b0c0e"/>
    <g style="transform-origin:802px 100px;animation:turn 9s ease-in-out infinite"><line x1="802" y1="97" x2="802" y2="87" stroke="#f1f3f5" stroke-width="2" stroke-linecap="round"/></g>

    <text x="742" y="148" class="cap" text-anchor="middle">POSITION</text>
    <line x1="731.4" y1="178.6" x2="729.3" y2="180.7" stroke="#7d848e" stroke-width="1"/><line x1="727.3" y1="170.9" x2="724.3" y2="171.5" stroke="#7d848e" stroke-width="1"/><line x1="728.1" y1="162.3" x2="725.4" y2="161.1" stroke="#7d848e" stroke-width="1"/><line x1="733.7" y1="155.5" x2="732" y2="153" stroke="#7d848e" stroke-width="1"/><line x1="742" y1="153" x2="742" y2="150" stroke="#7d848e" stroke-width="1"/><line x1="750.3" y1="155.5" x2="752" y2="153" stroke="#7d848e" stroke-width="1"/><line x1="755.9" y1="162.3" x2="758.6" y2="161.1" stroke="#7d848e" stroke-width="1"/><line x1="756.7" y1="170.9" x2="759.7" y2="171.5" stroke="#7d848e" stroke-width="1"/><line x1="752.6" y1="178.6" x2="754.7" y2="180.7" stroke="#7d848e" stroke-width="1"/>
    <circle cx="742" cy="168" r="12" fill="url(#knob)" stroke="#0b0c0e"/>
    <g style="transform-origin:742px 168px;animation:turn2 7s ease-in-out infinite"><line x1="742" y1="165" x2="742" y2="159" stroke="#f1f3f5" stroke-width="2" stroke-linecap="round"/></g>

    <text x="802" y="148" class="cap" text-anchor="middle">TRIGGER</text>
    <line x1="791.4" y1="178.6" x2="789.3" y2="180.7" stroke="#7d848e" stroke-width="1"/><line x1="787.3" y1="170.9" x2="784.3" y2="171.5" stroke="#7d848e" stroke-width="1"/><line x1="788.1" y1="162.3" x2="785.4" y2="161.1" stroke="#7d848e" stroke-width="1"/><line x1="793.7" y1="155.5" x2="792" y2="153" stroke="#7d848e" stroke-width="1"/><line x1="802" y1="153" x2="802" y2="150" stroke="#7d848e" stroke-width="1"/><line x1="810.3" y1="155.5" x2="812" y2="153" stroke="#7d848e" stroke-width="1"/><line x1="815.9" y1="162.3" x2="818.6" y2="161.1" stroke="#7d848e" stroke-width="1"/><line x1="816.7" y1="170.9" x2="819.7" y2="171.5" stroke="#7d848e" stroke-width="1"/><line x1="812.6" y1="178.6" x2="814.7" y2="180.7" stroke="#7d848e" stroke-width="1"/>
    <circle cx="802" cy="168" r="12" fill="url(#knob)" stroke="#0b0c0e"/>
    <g style="transform-origin:802px 168px;transform:rotate(-30deg)"><line x1="802" y1="165" x2="802" y2="159" stroke="#f1f3f5" stroke-width="2" stroke-linecap="round"/></g>
<rect x="710" y="206" width="35.3" height="16" rx="3" fill="#23262c" stroke="#4a4f57"/><text x="727.7" y="218" class="cap" text-anchor="middle" style="fill:#46ff9a">CH1</text>
<rect x="751.3" y="206" width="35.3" height="16" rx="3" fill="#23262c" stroke="#4a4f57"/><text x="769" y="218" class="cap" text-anchor="middle" style="fill:#7d848e">CH2</text>
<rect x="792.7" y="206" width="35.3" height="16" rx="3" fill="#23262c" stroke="#4a4f57"/><text x="810.3" y="218" class="cap" text-anchor="middle" style="fill:#46ff9a">RUN</text>
<circle cx="716" cy="266" r="5" fill="#46ff9a" filter="url(#beam)" style="animation:blink 2.4s ease-in-out infinite"/><text x="728" y="270" class="cap">POWER</text>
<text x="842" y="270" class="cap" text-anchor="end">@qwerty-ll</text>
  </g>
  </svg>