<svg xmlns="http://www.w3.org/2000/svg" width="860" height="317" viewBox="0 0 860 317">
  <title>qwerty-ll: git log --stats</title>
  <defs><clipPath id="frame"><rect width="860" height="317" rx="12"/></clipPath><linearGradient id="barg" x1="0" y1="1" x2="0" y2="0"><stop offset="0" stop-color="#0e4429"/><stop offset="1" stop-color="#39d353"/></linearGradient><filter id="glow" x="-20%" y="-50%" width="140%" height="200%"><feGaussianBlur stdDeviation="1.4" result="b"/><feMerge><feMergeNode in="b"/><feMergeNode in="SourceGraphic"/></feMerge></filter><clipPath id="typed"><rect x="185.79999999999998" y="42" width="280.8" height="19" class="m fbl" style="animation-name:type"/></clipPath><clipPath id="sweep"><rect x="20" y="99" width="603" height="115.39999999999999" class="m fbl" style="animation-name:sweep"/></clipPath></defs>
  <style>
    .m{animation-duration:13.847s;animation-iteration-count:infinite;animation-timing-function:linear;animation-fill-mode:both}
    .fbl{transform-box:fill-box;transform-origin:left center}
    text{font:13px ui-monospace,SFMono-Regular,Menlo,Consolas,"Liberation Mono",monospace;white-space:pre}
    .sm{font-size:11px}
    .xs{font-size:9px}
    .ttl{font:12px ui-monospace,SFMono-Regular,Menlo,Consolas,"Liberation Mono",monospace;fill:#8b949e}
    @keyframes type{0.0000%{transform:scaleX(0)}5.0407%{transform:scaleX(0)}5.0551%{transform:scaleX(0.0278)}5.5940%{transform:scaleX(0.0278)}5.6084%{transform:scaleX(0.0556)}6.1358%{transform:scaleX(0.0556)}6.1503%{transform:scaleX(0.0833)}6.4893%{transform:scaleX(0.0833)}6.5037%{transform:scaleX(0.1111)}7.2733%{transform:scaleX(0.1111)}7.2877%{transform:scaleX(0.1389)}7.9234%{transform:scaleX(0.1389)}7.9378%{transform:scaleX(0.1667)}8.5105%{transform:scaleX(0.1667)}8.5249%{transform:scaleX(0.1944)}9.1288%{transform:scaleX(0.1944)}9.1432%{transform:scaleX(0.2222)}10.0057%{transform:scaleX(0.2222)}10.0201%{transform:scaleX(0.2500)}10.3814%{transform:scaleX(0.2500)}10.3958%{transform:scaleX(0.2778)}10.7623%{transform:scaleX(0.2778)}10.7768%{transform:scaleX(0.3056)}11.1561%{transform:scaleX(0.3056)}11.1705%{transform:scaleX(0.3333)}11.6061%{transform:scaleX(0.3333)}11.6205%{transform:scaleX(0.3611)}12.0068%{transform:scaleX(0.3611)}12.0212%{transform:scaleX(0.3889)}12.3482%{transform:scaleX(0.3889)}12.3626%{transform:scaleX(0.4167)}12.9874%{transform:scaleX(0.4167)}13.0019%{transform:scaleX(0.4444)}13.8791%{transform:scaleX(0.4444)}13.8935%{transform:scaleX(0.4722)}14.2547%{transform:scaleX(0.4722)}14.2691%{transform:scaleX(0.5000)}14.6560%{transform:scaleX(0.5000)}14.6704%{transform:scaleX(0.5278)}15.2295%{transform:scaleX(0.5278)}15.2439%{transform:scaleX(0.5556)}15.8417%{transform:scaleX(0.5556)}15.8561%{transform:scaleX(0.5833)}16.3246%{transform:scaleX(0.5833)}16.3391%{transform:scaleX(0.6111)}16.6976%{transform:scaleX(0.6111)}16.7120%{transform:scaleX(0.6389)}17.1382%{transform:scaleX(0.6389)}17.1526%{transform:scaleX(0.6667)}17.7570%{transform:scaleX(0.6667)}17.7714%{transform:scaleX(0.6944)}18.1834%{transform:scaleX(0.6944)}18.1978%{transform:scaleX(0.7222)}18.8371%{transform:scaleX(0.7222)}18.8516%{transform:scaleX(0.7500)}19.8754%{transform:scaleX(0.7500)}19.8898%{transform:scaleX(0.7778)}20.4512%{transform:scaleX(0.7778)}20.4657%{transform:scaleX(0.8056)}20.9765%{transform:scaleX(0.8056)}20.9909%{transform:scaleX(0.8333)}21.6457%{transform:scaleX(0.8333)}21.6601%{transform:scaleX(0.8611)}22.1329%{transform:scaleX(0.8611)}22.1473%{transform:scaleX(0.8889)}23.1785%{transform:scaleX(0.8889)}23.1930%{transform:scaleX(0.9167)}23.8106%{transform:scaleX(0.9167)}23.8250%{transform:scaleX(0.9444)}24.4123%{transform:scaleX(0.9444)}24.4268%{transform:scaleX(0.9722)}24.8202%{transform:scaleX(0.9722)}24.8347%{transform:scaleX(1.0000)}96.3748%{transform:scaleX(1.0000)}96.3892%{transform:scaleX(1)}98.5412%{transform:scaleX(1)}98.5557%{transform:scaleX(0)}100.0000%{transform:scaleX(0)}}
@keyframes cur1{0.0000%{transform:translateX(0);opacity:1}5.0407%{transform:translateX(0);opacity:1}5.0551%{transform:translateX(7.8px);opacity:1}5.5940%{transform:translateX(7.8px);opacity:1}5.6084%{transform:translateX(15.6px);opacity:1}6.1358%{transform:translateX(15.6px);opacity:1}6.1503%{transform:translateX(23.4px);opacity:1}6.4893%{transform:translateX(23.4px);opacity:1}6.5037%{transform:translateX(31.2px);opacity:1}7.2733%{transform:translateX(31.2px);opacity:1}7.2877%{transform:translateX(39px);opacity:1}7.9234%{transform:translateX(39px);opacity:1}7.9378%{transform:translateX(46.8px);opacity:1}8.5105%{transform:translateX(46.8px);opacity:1}8.5249%{transform:translateX(54.6px);opacity:1}9.1288%{transform:translateX(54.6px);opacity:1}9.1432%{transform:translateX(62.4px);opacity:1}10.0057%{transform:translateX(62.4px);opacity:1}10.0201%{transform:translateX(70.2px);opacity:1}10.3814%{transform:translateX(70.2px);opacity:1}10.3958%{transform:translateX(78px);opacity:1}10.7623%{transform:translateX(78px);opacity:1}10.7768%{transform:translateX(85.8px);opacity:1}11.1561%{transform:translateX(85.8px);opacity:1}11.1705%{transform:translateX(93.6px);opacity:1}11.6061%{transform:translateX(93.6px);opacity:1}11.6205%{transform:translateX(101.4px);opacity:1}12.0068%{transform:translateX(101.4px);opacity:1}12.0212%{transform:translateX(109.2px);opacity:1}12.3482%{transform:translateX(109.2px);opacity:1}12.3626%{transform:translateX(117px);opacity:1}12.9874%{transform:translateX(117px);opacity:1}13.0019%{transform:translateX(124.8px);opacity:1}13.8791%{transform:translateX(124.8px);opacity:1}13.8935%{transform:translateX(132.6px);opacity:1}14.2547%{transform:translateX(132.6px);opacity:1}14.2691%{transform:translateX(140.4px);opacity:1}14.6560%{transform:translateX(140.4px);opacity:1}14.6704%{transform:translateX(148.2px);opacity:1}15.2295%{transform:translateX(148.2px);opacity:1}15.2439%{transform:translateX(156px);opacity:1}15.8417%{transform:translateX(156px);opacity:1}15.8561%{transform:translateX(163.8px);opacity:1}16.3246%{transform:translateX(163.8px);opacity:1}16.3391%{transform:translateX(171.6px);opacity:1}16.6976%{transform:translateX(171.6px);opacity:1}16.7120%{transform:translateX(179.4px);opacity:1}17.1382%{transform:translateX(179.4px);opacity:1}17.1526%{transform:translateX(187.2px);opacity:1}17.7570%{transform:translateX(187.2px);opacity:1}17.7714%{transform:translateX(195px);opacity:1}18.1834%{transform:translateX(195px);opacity:1}18.1978%{transform:translateX(202.8px);opacity:1}18.8371%{transform:translateX(202.8px);opacity:1}18.8516%{transform:translateX(210.6px);opacity:1}19.8754%{transform:translateX(210.6px);opacity:1}19.8898%{transform:translateX(218.4px);opacity:1}20.4512%{transform:translateX(218.4px);opacity:1}20.4657%{transform:translateX(226.2px);opacity:1}20.9765%{transform:translateX(226.2px);opacity:1}20.9909%{transform:translateX(234px);opacity:1}21.6457%{transform:translateX(234px);opacity:1}21.6601%{transform:translateX(241.8px);opacity:1}22.1329%{transform:translateX(241.8px);opacity:1}22.1473%{transform:translateX(249.6px);opacity:1}23.1785%{transform:translateX(249.6px);opacity:1}23.1930%{transform:translateX(257.4px);opacity:1}23.8106%{transform:translateX(257.4px);opacity:1}23.8250%{transform:translateX(265.2px);opacity:1}24.4123%{transform:translateX(265.2px);opacity:1}24.4268%{transform:translateX(273px);opacity:1}24.8202%{transform:translateX(273px);opacity:1}24.8347%{transform:translateX(280.8px);opacity:1}27.0473%{transform:translateX(280.8px);opacity:1}27.0617%{transform:translateX(280.8px);opacity:0}98.5412%{transform:translateX(280.8px);opacity:0}98.5557%{transform:translateX(0);opacity:0}99.9856%{transform:translateX(0);opacity:0}100.0000%{transform:translateX(0);opacity:1}}
@keyframes fetch{0.0000%{opacity:0}27.0473%{opacity:0}27.0617%{opacity:1}96.3892%{opacity:1}98.5557%{opacity:0}100.0000%{opacity:0}}
@keyframes dots{0.0000%{opacity:1}33.5467%{opacity:1}33.5612%{opacity:0}100.0000%{opacity:0}}
@keyframes ok{0.0000%{opacity:0}33.5467%{opacity:0}33.5612%{opacity:1}100.0000%{opacity:1}}
@keyframes dot{0%{opacity:0}33%{opacity:1}}
@keyframes sweep{0.0000%{transform:scaleX(0)}34.9911%{transform:scaleX(0)}35.0055%{transform:scaleX(0);animation-timing-function:steps(53)}46.5601%{transform:scaleX(1)}96.3892%{transform:scaleX(1)}98.5412%{transform:scaleX(1)}98.5557%{transform:scaleX(0)}100.0000%{transform:scaleX(0)}}
@keyframes gridv{0.0000%{opacity:0}34.9911%{opacity:0}35.0055%{opacity:1}96.3892%{opacity:1}98.5557%{opacity:0}100.0000%{opacity:0}}
@keyframes sep{0.0000%{opacity:0}37.1575%{opacity:0}37.1720%{opacity:1}96.3892%{opacity:1}98.5557%{opacity:0}100.0000%{opacity:0}}
@keyframes s0{0.0000%{opacity:0}37.1575%{opacity:0}37.1720%{opacity:1}96.3892%{opacity:1}98.5557%{opacity:0}100.0000%{opacity:0}}
@keyframes s1{0.0000%{opacity:0}38.7463%{opacity:0}38.7607%{opacity:1}96.3892%{opacity:1}98.5557%{opacity:0}100.0000%{opacity:0}}
@keyframes s2{0.0000%{opacity:0}40.3351%{opacity:0}40.3495%{opacity:1}96.3892%{opacity:1}98.5557%{opacity:0}100.0000%{opacity:0}}
@keyframes s3{0.0000%{opacity:0}41.9238%{opacity:0}41.9383%{opacity:1}96.3892%{opacity:1}98.5557%{opacity:0}100.0000%{opacity:0}}
@keyframes s4{0.0000%{opacity:0}43.5126%{opacity:0}43.5270%{opacity:1}96.3892%{opacity:1}98.5557%{opacity:0}100.0000%{opacity:0}}
@keyframes s5{0.0000%{opacity:0}45.1013%{opacity:0}45.1158%{opacity:1}96.3892%{opacity:1}98.5557%{opacity:0}100.0000%{opacity:0}}
@keyframes s6{0.0000%{opacity:0}46.6901%{opacity:0}46.7045%{opacity:1}96.3892%{opacity:1}98.5557%{opacity:0}100.0000%{opacity:0}}
@keyframes bl{0.0000%{opacity:0}47.9900%{opacity:0}48.0044%{opacity:1}96.3892%{opacity:1}98.5557%{opacity:0}100.0000%{opacity:0}}
@keyframes b0{0.0000%{opacity:0}47.9900%{opacity:0}48.0044%{opacity:1}96.3892%{opacity:1}98.5557%{opacity:0}100.0000%{opacity:0}}
@keyframes b1{0.0000%{opacity:0}48.4233%{opacity:0}48.4377%{opacity:1}96.3892%{opacity:1}98.5557%{opacity:0}100.0000%{opacity:0}}
@keyframes b2{0.0000%{opacity:0}48.8566%{opacity:0}48.8710%{opacity:1}96.3892%{opacity:1}98.5557%{opacity:0}100.0000%{opacity:0}}
@keyframes b3{0.0000%{opacity:0}49.2899%{opacity:0}49.3043%{opacity:1}96.3892%{opacity:1}98.5557%{opacity:0}100.0000%{opacity:0}}
@keyframes b4{0.0000%{opacity:0}49.7231%{opacity:0}49.7376%{opacity:1}96.3892%{opacity:1}98.5557%{opacity:0}100.0000%{opacity:0}}
@keyframes b5{0.0000%{opacity:0}50.1564%{opacity:0}50.1709%{opacity:1}96.3892%{opacity:1}98.5557%{opacity:0}100.0000%{opacity:0}}
@keyframes b6{0.0000%{opacity:0}50.5897%{opacity:0}50.6042%{opacity:1}96.3892%{opacity:1}98.5557%{opacity:0}100.0000%{opacity:0}}
@keyframes b7{0.0000%{opacity:0}51.0230%{opacity:0}51.0375%{opacity:1}96.3892%{opacity:1}98.5557%{opacity:0}100.0000%{opacity:0}}
@keyframes b8{0.0000%{opacity:0}51.4563%{opacity:0}51.4708%{opacity:1}96.3892%{opacity:1}98.5557%{opacity:0}100.0000%{opacity:0}}
@keyframes b9{0.0000%{opacity:0}51.8896%{opacity:0}51.9041%{opacity:1}96.3892%{opacity:1}98.5557%{opacity:0}100.0000%{opacity:0}}
@keyframes b10{0.0000%{opacity:0}52.3229%{opacity:0}52.3374%{opacity:1}96.3892%{opacity:1}98.5557%{opacity:0}100.0000%{opacity:0}}
@keyframes b11{0.0000%{opacity:0}52.7562%{opacity:0}52.7707%{opacity:1}96.3892%{opacity:1}98.5557%{opacity:0}100.0000%{opacity:0}}
@keyframes b12{0.0000%{opacity:0}53.1895%{opacity:0}53.2040%{opacity:1}96.3892%{opacity:1}98.5557%{opacity:0}100.0000%{opacity:0}}
@keyframes avg{0.0000%{opacity:0}53.7672%{opacity:0}53.7817%{opacity:1}96.3892%{opacity:1}98.5557%{opacity:0}100.0000%{opacity:0}}
@keyframes p2{0.0000%{opacity:0}56.6559%{opacity:0}56.6703%{opacity:1}96.3892%{opacity:1}98.5557%{opacity:0}100.0000%{opacity:0}}
@keyframes blink{50%{opacity:0}}</style>
  <g clip-path="url(#frame)">
  <rect width="860" height="317" fill="#0d1117"/>
<rect width="860" height="34" fill="#161b22"/><rect y="33" width="860" height="1" fill="#30363d"/>
<circle cx="20" cy="17" r="6" fill="#ff5f57"/>
<circle cx="40" cy="17" r="6" fill="#febc2e"/>
<circle cx="60" cy="17" r="6" fill="#28c840"/>
<text x="430" y="21" text-anchor="middle" class="ttl">qwerty-ll — git log — zsh — 110×24</text>
<g class="t"><text x="22" y="56" fill="#3fb950" textLength="156" lengthAdjust="spacing">qwerty-ll@github ~ %</text></g>
<g class="t" clip-path="url(#typed)"><text x="185.79999999999998" y="56" fill="#c9d1d9" textLength="280.8" lengthAdjust="spacing">git log --stats --since="1 year ago"</text></g>
<rect x="185.79999999999998" y="44" width="7.8" height="15" fill="#c9d1d9" class="m " style="animation-name:cur1"/>
<g class="m " style="animation-name:fetch"><text x="22" y="75" fill="#8b949e" textLength="187.2" lengthAdjust="spacing">→ fetching contributions</text>
    <g class="m " style="animation-name:dots"><text x="217" y="75" fill="#8b949e" style="animation:dot 0.9s steps(1) -0.6s infinite">.</text><text x="224.8" y="75" fill="#8b949e" style="animation:dot 0.9s steps(1) -0.3s infinite">.</text><text x="232.6" y="75" fill="#8b949e" style="animation:dot 0.9s steps(1) 0s infinite">.</text></g>
    <g class="m " style="animation-name:ok"><text x="217" y="75" fill="#3fb950" textLength="117" lengthAdjust="spacing">done ✓ 370 days</text></g>
  </g>
<g clip-path="url(#sweep)" class="m " style="animation-name:gridv"><text x="80.4" y="113" fill="#8b949e" class="sm">Oct</text><text x="122.8" y="113" fill="#8b949e" class="sm">Nov</text><text x="175.8" y="113" fill="#8b949e" class="sm">Dec</text><text x="218.2" y="113" fill="#8b949e" class="sm">Jan</text><text x="260.6" y="113" fill="#8b949e" class="sm">Feb</text><text x="303" y="113" fill="#8b949e" class="sm">Mar</text><text x="356" y="113" fill="#8b949e" class="sm">Apr</text><text x="398.4" y="113" fill="#8b949e" class="sm">May</text><text x="451.4" y="113" fill="#8b949e" class="sm">Jun</text><text x="493.8" y="113" fill="#8b949e" class="sm">Jul</text><text x="536.2" y="113" fill="#8b949e" class="sm">Aug</text><text x="589.2" y="113" fill="#8b949e" class="sm">Sep</text><text x="22" y="142.6" fill="#8b949e" textLength="23.4" lengthAdjust="spacing" class="sm">Mon</text><text x="22" y="163.8" fill="#8b949e" textLength="23.4" lengthAdjust="spacing" class="sm">Wed</text><text x="22" y="185" fill="#8b949e" textLength="23.4" lengthAdjust="spacing" class="sm">Fri</text><rect x="62.5" y="126.3" width="2" height="2" fill="#30363d"/><rect x="62.5" y="136.9" width="2" height="2" fill="#30363d"/><rect x="62.5" y="147.5" width="2" height="2" fill="#30363d"/><rect x="62.5" y="158.1" width="2" height="2" fill="#30363d"/><rect x="62.5" y="168.7" width="2" height="2" fill="#30363d"/><rect x="62.5" y="179.3" width="2" height="2" fill="#30363d"/><rect x="62.5" y="189.9" width="2" height="2" fill="#30363d"/><rect x="73.1" y="126.3" width="2" height="2" fill="#30363d"/><rect x="73.1" y="136.9" width="2" height="2" fill="#30363d"/><rect x="73.1" y="147.5" width="2" height="2" fill="#30363d"/><rect x="73.1" y="158.1" width="2" height="2" fill="#30363d"/><rect x="73.1" y="168.7" width="2" height="2" fill="#30363d"/><rect x="73.1" y="179.3" width="2" height="2" fill="#30363d"/><rect x="73.1" y="189.9" width="2" height="2" fill="#30363d"/><rect x="83.7" y="126.3" width="2" height="2" fill="#30363d"/><rect x="83.7" y="136.9" width="2" height="2" fill="#30363d"/><rect x="83.7" y="147.5" width="2" height="2" fill="#30363d"/><rect x="83.7" y="158.1" width="2" height="2" fill="#30363d"/><rect x="83.7" y="168.7" width="2" height="2" fill="#30363d"/><rect x="83.7" y="179.3" width="2" height="2" fill="#30363d"/><rect x="83.7" y="189.9" width="2" height="2" fill="#30363d"/><rect x="94.3" y="126.3" width="2" height="2" fill="#30363d"/><rect x="94.3" y="136.9" width="2" height="2" fill="#30363d"/><rect x="94.3" y="147.5" width="2" height="2" fill="#30363d"/><rect x="94.3" y="158.1" width="2" height="2" fill="#30363d"/><rect x="94.3" y="168.7" width="2" height="2" fill="#30363d"/><rect x="94.3" y="179.3" width="2" height="2" fill="#30363d"/><rect x="94.3" y="189.9" width="2" height="2" fill="#30363d"/><rect x="104.9" y="126.3" width="2" height="2" fill="#30363d"/><rect x="104.9" y="136.9" width="2" height="2" fill="#30363d"/><rect x="104.9" y="147.5" width="2" height="2" fill="#30363d"/><rect x="104.9" y="158.1" width="2" height="2" fill="#30363d"/><rect x="104.9" y="168.7" width="2" height="2" fill="#30363d"/><rect x="104.9" y="179.3" width="2" height="2" fill="#30363d"/><rect x="104.9" y="189.9" width="2" height="2" fill="#30363d"/><rect x="115.5" y="126.3" width="2" height="2" fill="#30363d"/><rect x="115.5" y="136.9" width="2" height="2" fill="#30363d"/><rect x="115.5" y="147.5" width="2" height="2" fill="#30363d"/><rect x="115.5" y="158.1" width="2" height="2" fill="#30363d"/><rect x="115.5" y="168.7" width="2" height="2" fill="#30363d"/><rect x="115.5" y="179.3" width="2" height="2" fill="#30363d"/><rect x="112.2" y="186.6" width="8.6" height="8.6" rx="1.5" fill="#0e4429"><title>2 on 2025-11-01</title></rect><rect x="126.1" y="126.3" width="2" height="2" fill="#30363d"/><rect x="126.1" y="136.9" width="2" height="2" fill="#30363d"/><rect x="126.1" y="147.5" width="2" height="2" fill="#30363d"/><rect x="126.1" y="158.1" width="2" height="2" fill="#30363d"/><rect x="126.1" y="168.7" width="2" height="2" fill="#30363d"/><rect x="126.1" y="179.3" width="2" height="2" fill="#30363d"/><rect x="126.1" y="189.9" width="2" height="2" fill="#30363d"/><rect x="136.7" y="126.3" width="2" height="2" fill="#30363d"/><rect x="136.7" y="136.9" width="2" height="2" fill="#30363d"/><rect x="136.7" y="147.5" width="2" height="2" fill="#30363d"/><rect x="136.7" y="158.1" width="2" height="2" fill="#30363d"/><rect x="136.7" y="168.7" width="2" height="2" fill="#30363d"/><rect x="136.7" y="179.3" width="2" height="2" fill="#30363d"/><rect x="136.7" y="189.9" width="2" height="2" fill="#30363d"/><rect x="147.3" y="126.3" width="2" height="2" fill="#30363d"/><rect x="147.3" y="136.9" width="2" height="2" fill="#30363d"/><rect x="147.3" y="147.5" width="2" height="2" fill="#30363d"/><rect x="144" y="154.8" width="8.6" height="8.6" rx="1.5" fill="#26a641" filter="url(#glow)"><title>14 on 2025-11-19</title></rect><rect x="147.3" y="168.7" width="2" height="2" fill="#30363d"/><rect x="147.3" y="179.3" width="2" height="2" fill="#30363d"/><rect x="147.3" y="189.9" width="2" height="2" fill="#30363d"/><rect x="157.9" y="126.3" width="2" height="2" fill="#30363d"/><rect x="157.9" y="136.9" width="2" height="2" fill="#30363d"/><rect x="154.6" y="144.2" width="8.6" height="8.6" rx="1.5" fill="#0e4429"><title>4 on 2025-11-25</title></rect><rect x="157.9" y="158.1" width="2" height="2" fill="#30363d"/><rect x="154.6" y="165.4" width="8.6" height="8.6" rx="1.5" fill="#0e4429"><title>3 on 2025-11-27</title></rect><rect x="157.9" y="179.3" width="2" height="2" fill="#30363d"/><rect x="154.6" y="186.6" width="8.6" height="8.6" rx="1.5" fill="#0e4429"><title>5 on 2025-11-29</title></rect><rect x="168.5" y="126.3" width="2" height="2" fill="#30363d"/><rect x="168.5" y="136.9" width="2" height="2" fill="#30363d"/><rect x="168.5" y="147.5" width="2" height="2" fill="#30363d"/><rect x="168.5" y="158.1" width="2" height="2" fill="#30363d"/><rect x="168.5" y="168.7" width="2" height="2" fill="#30363d"/><rect x="168.5" y="179.3" width="2" height="2" fill="#30363d"/><rect x="168.5" y="189.9" width="2" height="2" fill="#30363d"/><rect x="179.1" y="126.3" width="2" height="2" fill="#30363d"/><rect x="179.1" y="136.9" width="2" height="2" fill="#30363d"/><rect x="179.1" y="147.5" width="2" height="2" fill="#30363d"/><rect x="179.1" y="158.1" width="2" height="2" fill="#30363d"/><rect x="179.1" y="168.7" width="2" height="2" fill="#30363d"/><rect x="179.1" y="179.3" width="2" height="2" fill="#30363d"/><rect x="179.1" y="189.9" width="2" height="2" fill="#30363d"/><rect x="189.7" y="126.3" width="2" height="2" fill="#30363d"/><rect x="189.7" y="136.9" width="2" height="2" fill="#30363d"/><rect x="189.7" y="147.5" width="2" height="2" fill="#30363d"/><rect x="189.7" y="158.1" width="2" height="2" fill="#30363d"/><rect x="189.7" y="168.7" width="2" height="2" fill="#30363d"/><rect x="189.7" y="179.3" width="2" height="2" fill="#30363d"/><rect x="189.7" y="189.9" width="2" height="2" fill="#30363d"/><rect x="200.3" y="126.3" width="2" height="2" fill="#30363d"/><rect x="200.3" y="136.9" width="2" height="2" fill="#30363d"/><rect x="200.3" y="147.5" width="2" height="2" fill="#30363d"/><rect x="200.3" y="158.1" width="2" height="2" fill="#30363d"/><rect x="200.3" y="168.7" width="2" height="2" fill="#30363d"/><rect x="200.3" y="179.3" width="2" height="2" fill="#30363d"/><rect x="200.3" y="189.9" width="2" height="2" fill="#30363d"/><rect x="210.9" y="126.3" width="2" height="2" fill="#30363d"/><rect x="210.9" y="136.9" width="2" height="2" fill="#30363d"/><rect x="210.9" y="147.5" width="2" height="2" fill="#30363d"/><rect x="210.9" y="158.1" width="2" height="2" fill="#30363d"/><rect x="210.9" y="168.7" width="2" height="2" fill="#30363d"/><rect x="210.9" y="179.3" width="2" height="2" fill="#30363d"/><rect x="210.9" y="189.9" width="2" height="2" fill="#30363d"/><rect x="221.5" y="126.3" width="2" height="2" fill="#30363d"/><rect x="221.5" y="136.9" width="2" height="2" fill="#30363d"/><rect x="221.5" y="147.5" width="2" height="2" fill="#30363d"/><rect x="221.5" y="158.1" width="2" height="2" fill="#30363d"/><rect x="221.5" y="168.7" width="2" height="2" fill="#30363d"/><rect x="221.5" y="179.3" width="2" height="2" fill="#30363d"/><rect x="221.5" y="189.9" width="2" height="2" fill="#30363d"/><rect x="232.1" y="126.3" width="2" height="2" fill="#30363d"/><rect x="232.1" y="136.9" width="2" height="2" fill="#30363d"/><rect x="232.1" y="147.5" width="2" height="2" fill="#30363d"/><rect x="232.1" y="158.1" width="2" height="2" fill="#30363d"/><rect x="232.1" y="168.7" width="2" height="2" fill="#30363d"/><rect x="232.1" y="179.3" width="2" height="2" fill="#30363d"/><rect x="232.1" y="189.9" width="2" height="2" fill="#30363d"/><rect x="242.7" y="126.3" width="2" height="2" fill="#30363d"/><rect x="242.7" y="136.9" width="2" height="2" fill="#30363d"/><rect x="242.7" y="147.5" width="2" height="2" fill="#30363d"/><rect x="242.7" y="158.1" width="2" height="2" fill="#30363d"/><rect x="242.7" y="168.7" width="2" height="2" fill="#30363d"/><rect x="242.7" y="179.3" width="2" height="2" fill="#30363d"/><rect x="242.7" y="189.9" width="2" height="2" fill="#30363d"/><rect x="253.3" y="126.3" width="2" height="2" fill="#30363d"/><rect x="253.3" y="136.9" width="2" height="2" fill="#30363d"/><rect x="253.3" y="147.5" width="2" height="2" fill="#30363d"/><rect x="253.3" y="158.1" width="2" height="2" fill="#30363d"/><rect x="253.3" y="168.7" width="2" height="2" fill="#30363d"/><rect x="253.3" y="179.3" width="2" height="2" fill="#30363d"/><rect x="253.3" y="189.9" width="2" height="2" fill="#30363d"/><rect x="263.9" y="126.3" width="2" height="2" fill="#30363d"/><rect x="263.9" y="136.9" width="2" height="2" fill="#30363d"/><rect x="263.9" y="147.5" width="2" height="2" fill="#30363d"/><rect x="263.9" y="158.1" width="2" height="2" fill="#30363d"/><rect x="263.9" y="168.7" width="2" height="2" fill="#30363d"/><rect x="263.9" y="179.3" width="2" height="2" fill="#30363d"/><rect x="263.9" y="189.9" width="2" height="2" fill="#30363d"/><rect x="274.5" y="126.3" width="2" height="2" fill="#30363d"/><rect x="274.5" y="136.9" width="2" height="2" fill="#30363d"/><rect x="274.5" y="147.5" width="2" height="2" fill="#30363d"/><rect x="274.5" y="158.1" width="2" height="2" fill="#30363d"/><rect x="274.5" y="168.7" width="2" height="2" fill="#30363d"/><rect x="274.5" y="179.3" width="2" height="2" fill="#30363d"/><rect x="274.5" y="189.9" width="2" height="2" fill="#30363d"/><rect x="285.1" y="126.3" width="2" height="2" fill="#30363d"/><rect x="285.1" y="136.9" width="2" height="2" fill="#30363d"/><rect x="285.1" y="147.5" width="2" height="2" fill="#30363d"/><rect x="285.1" y="158.1" width="2" height="2" fill="#30363d"/><rect x="285.1" y="168.7" width="2" height="2" fill="#30363d"/><rect x="285.1" y="179.3" width="2" height="2" fill="#30363d"/><rect x="285.1" y="189.9" width="2" height="2" fill="#30363d"/><rect x="295.7" y="126.3" width="2" height="2" fill="#30363d"/><rect x="295.7" y="136.9" width="2" height="2" fill="#30363d"/><rect x="295.7" y="147.5" width="2" height="2" fill="#30363d"/><rect x="295.7" y="158.1" width="2" height="2" fill="#30363d"/><rect x="295.7" y="168.7" width="2" height="2" fill="#30363d"/><rect x="295.7" y="179.3" width="2" height="2" fill="#30363d"/><rect x="295.7" y="189.9" width="2" height="2" fill="#30363d"/><rect x="306.3" y="126.3" width="2" height="2" fill="#30363d"/><rect x="306.3" y="136.9" width="2" height="2" fill="#30363d"/><rect x="306.3" y="147.5" width="2" height="2" fill="#30363d"/><rect x="306.3" y="158.1" width="2" height="2" fill="#30363d"/><rect x="306.3" y="168.7" width="2" height="2" fill="#30363d"/><rect x="306.3" y="179.3" width="2" height="2" fill="#30363d"/><rect x="306.3" y="189.9" width="2" height="2" fill="#30363d"/><rect x="316.9" y="126.3" width="2" height="2" fill="#30363d"/><rect x="316.9" y="136.9" width="2" height="2" fill="#30363d"/><rect x="316.9" y="147.5" width="2" height="2" fill="#30363d"/><rect x="316.9" y="158.1" width="2" height="2" fill="#30363d"/><rect x="316.9" y="168.7" width="2" height="2" fill="#30363d"/><rect x="316.9" y="179.3" width="2" height="2" fill="#30363d"/><rect x="316.9" y="189.9" width="2" height="2" fill="#30363d"/><rect x="327.5" y="126.3" width="2" height="2" fill="#30363d"/><rect x="327.5" y="136.9" width="2" height="2" fill="#30363d"/><rect x="327.5" y="147.5" width="2" height="2" fill="#30363d"/><rect x="327.5" y="158.1" width="2" height="2" fill="#30363d"/><rect x="327.5" y="168.7" width="2" height="2" fill="#30363d"/><rect x="327.5" y="179.3" width="2" height="2" fill="#30363d"/><rect x="327.5" y="189.9" width="2" height="2" fill="#30363d"/><rect x="338.1" y="126.3" width="2" height="2" fill="#30363d"/><rect x="338.1" y="136.9" width="2" height="2" fill="#30363d"/><rect x="338.1" y="147.5" width="2" height="2" fill="#30363d"/><rect x="334.8" y="154.8" width="8.6" height="8.6" rx="1.5" fill="#26a641" filter="url(#glow)"><title>14 on 2026-03-25</title></rect><rect x="338.1" y="168.7" width="2" height="2" fill="#30363d"/><rect x="338.1" y="179.3" width="2" height="2" fill="#30363d"/><rect x="338.1" y="189.9" width="2" height="2" fill="#30363d"/><rect x="348.7" y="126.3" width="2" height="2" fill="#30363d"/><rect x="345.4" y="133.6" width="8.6" height="8.6" rx="1.5" fill="#006d32"><title>8 on 2026-03-30</title></rect><rect x="345.4" y="144.2" width="8.6" height="8.6" rx="1.5" fill="#006d32"><title>12 on 2026-03-31</title></rect><rect x="345.4" y="154.8" width="8.6" height="8.6" rx="1.5" fill="#0e4429"><title>3 on 2026-04-01</title></rect><rect x="348.7" y="168.7" width="2" height="2" fill="#30363d"/><rect x="348.7" y="179.3" width="2" height="2" fill="#30363d"/><rect x="348.7" y="189.9" width="2" height="2" fill="#30363d"/><rect x="359.3" y="126.3" width="2" height="2" fill="#30363d"/><rect x="359.3" y="136.9" width="2" height="2" fill="#30363d"/><rect x="359.3" y="147.5" width="2" height="2" fill="#30363d"/><rect x="359.3" y="158.1" width="2" height="2" fill="#30363d"/><rect x="359.3" y="168.7" width="2" height="2" fill="#30363d"/><rect x="359.3" y="179.3" width="2" height="2" fill="#30363d"/><rect x="359.3" y="189.9" width="2" height="2" fill="#30363d"/><rect x="369.9" y="126.3" width="2" height="2" fill="#30363d"/><rect x="369.9" y="136.9" width="2" height="2" fill="#30363d"/><rect x="369.9" y="147.5" width="2" height="2" fill="#30363d"/><rect x="366.6" y="154.8" width="8.6" height="8.6" rx="1.5" fill="#0e4429"><title>1 on 2026-04-15</title></rect><rect x="369.9" y="168.7" width="2" height="2" fill="#30363d"/><rect x="366.6" y="176" width="8.6" height="8.6" rx="1.5" fill="#39d353" filter="url(#glow)"><title>20 on 2026-04-17</title></rect><rect x="369.9" y="189.9" width="2" height="2" fill="#30363d"/><rect x="380.5" y="126.3" width="2" height="2" fill="#30363d"/><rect x="380.5" y="136.9" width="2" height="2" fill="#30363d"/><rect x="380.5" y="147.5" width="2" height="2" fill="#30363d"/><rect x="380.5" y="158.1" width="2" height="2" fill="#30363d"/><rect x="380.5" y="168.7" width="2" height="2" fill="#30363d"/><rect x="380.5" y="179.3" width="2" height="2" fill="#30363d"/><rect x="380.5" y="189.9" width="2" height="2" fill="#30363d"/><rect x="391.1" y="126.3" width="2" height="2" fill="#30363d"/><rect x="391.1" y="136.9" width="2" height="2" fill="#30363d"/><rect x="387.8" y="144.2" width="8.6" height="8.6" rx="1.5" fill="#0e4429"><title>2 on 2026-04-28</title></rect><rect x="391.1" y="158.1" width="2" height="2" fill="#30363d"/><rect x="391.1" y="168.7" width="2" height="2" fill="#30363d"/><rect x="391.1" y="179.3" width="2" height="2" fill="#30363d"/><rect x="391.1" y="189.9" width="2" height="2" fill="#30363d"/><rect x="401.7" y="126.3" width="2" height="2" fill="#30363d"/><rect x="401.7" y="136.9" width="2" height="2" fill="#30363d"/><rect x="401.7" y="147.5" width="2" height="2" fill="#30363d"/><rect x="401.7" y="158.1" width="2" height="2" fill="#30363d"/><rect x="401.7" y="168.7" width="2" height="2" fill="#30363d"/><rect x="401.7" y="179.3" width="2" height="2" fill="#30363d"/><rect x="401.7" y="189.9" width="2" height="2" fill="#30363d"/><rect x="412.3" y="126.3" width="2" height="2" fill="#30363d"/><rect x="412.3" y="136.9" width="2" height="2" fill="#30363d"/><rect x="412.3" y="147.5" width="2" height="2" fill="#30363d"/><rect x="409" y="154.8" width="8.6" height="8.6" rx="1.5" fill="#0e4429"><title>1 on 2026-05-13</title></rect><rect x="412.3" y="168.7" width="2" height="2" fill="#30363d"/><rect x="412.3" y="179.3" width="2" height="2" fill="#30363d"/><rect x="409" y="186.6" width="8.6" height="8.6" rx="1.5" fill="#006d32"><title>8 on 2026-05-16</title></rect><rect x="419.6" y="123" width="8.6" height="8.6" rx="1.5" fill="#006d32"><title>8 on 2026-05-17</title></rect><rect x="419.6" y="133.6" width="8.6" height="8.6" rx="1.5" fill="#0e4429"><title>1 on 2026-05-18</title></rect><rect x="419.6" y="144.2" width="8.6" height="8.6" rx="1.5" fill="#0e4429"><title>1 on 2026-05-19</title></rect><rect x="422.9" y="158.1" width="2" height="2" fill="#30363d"/><rect x="422.9" y="168.7" width="2" height="2" fill="#30363d"/><rect x="422.9" y="179.3" width="2" height="2" fill="#30363d"/><rect x="422.9" y="189.9" width="2" height="2" fill="#30363d"/><rect x="433.5" y="126.3" width="2" height="2" fill="#30363d"/><rect x="433.5" y="136.9" width="2" height="2" fill="#30363d"/><rect x="433.5" y="147.5" width="2" height="2" fill="#30363d"/><rect x="433.5" y="158.1" width="2" height="2" fill="#30363d"/><rect x="433.5" y="168.7" width="2" height="2" fill="#30363d"/><rect x="433.5" y="179.3" width="2" height="2" fill="#30363d"/><rect x="433.5" y="189.9" width="2" height="2" fill="#30363d"/><rect x="444.1" y="126.3" width="2" height="2" fill="#30363d"/><rect x="440.8" y="133.6" width="8.6" height="8.6" rx="1.5" fill="#0e4429"><title>4 on 2026-06-01</title></rect><rect x="444.1" y="147.5" width="2" height="2" fill="#30363d"/><rect x="444.1" y="158.1" width="2" height="2" fill="#30363d"/><rect x="444.1" y="168.7" width="2" height="2" fill="#30363d"/><rect x="444.1" y="179.3" width="2" height="2" fill="#30363d"/><rect x="444.1" y="189.9" width="2" height="2" fill="#30363d"/><rect x="454.7" y="126.3" width="2" height="2" fill="#30363d"/><rect x="454.7" y="136.9" width="2" height="2" fill="#30363d"/><rect x="454.7" y="147.5" width="2" height="2" fill="#30363d"/><rect x="454.7" y="158.1" width="2" height="2" fill="#30363d"/><rect x="454.7" y="168.7" width="2" height="2" fill="#30363d"/><rect x="454.7" y="179.3" width="2" height="2" fill="#30363d"/><rect x="454.7" y="189.9" width="2" height="2" fill="#30363d"/><rect x="465.3" y="126.3" width="2" height="2" fill="#30363d"/><rect x="465.3" y="136.9" width="2" height="2" fill="#30363d"/><rect x="465.3" y="147.5" width="2" height="2" fill="#30363d"/><rect x="465.3" y="158.1" width="2" height="2" fill="#30363d"/><rect x="465.3" y="168.7" width="2" height="2" fill="#30363d"/><rect x="465.3" y="179.3" width="2" height="2" fill="#30363d"/><rect x="465.3" y="189.9" width="2" height="2" fill="#30363d"/><rect x="475.9" y="126.3" width="2" height="2" fill="#30363d"/><rect x="475.9" y="136.9" width="2" height="2" fill="#30363d"/><rect x="475.9" y="147.5" width="2" height="2" fill="#30363d"/><rect x="475.9" y="158.1" width="2" height="2" fill="#30363d"/><rect x="475.9" y="168.7" width="2" height="2" fill="#30363d"/><rect x="475.9" y="179.3" width="2" height="2" fill="#30363d"/><rect x="475.9" y="189.9" width="2" height="2" fill="#30363d"/><rect x="486.5" y="126.3" width="2" height="2" fill="#30363d"/><rect x="486.5" y="136.9" width="2" height="2" fill="#30363d"/><rect x="486.5" y="147.5" width="2" height="2" fill="#30363d"/><rect x="486.5" y="158.1" width="2" height="2" fill="#30363d"/><rect x="486.5" y="168.7" width="2" height="2" fill="#30363d"/><rect x="486.5" y="179.3" width="2" height="2" fill="#30363d"/><rect x="486.5" y="189.9" width="2" height="2" fill="#30363d"/><rect x="497.1" y="126.3" width="2" height="2" fill="#30363d"/><rect x="497.1" y="136.9" width="2" height="2" fill="#30363d"/><rect x="497.1" y="147.5" width="2" height="2" fill="#30363d"/><rect x="497.1" y="158.1" width="2" height="2" fill="#30363d"/><rect x="493.8" y="165.4" width="8.6" height="8.6" rx="1.5" fill="#0e4429"><title>1 on 2026-07-09</title></rect><rect x="497.1" y="179.3" width="2" height="2" fill="#30363d"/><rect x="497.1" y="189.9" width="2" height="2" fill="#30363d"/><rect x="507.7" y="126.3" width="2" height="2" fill="#30363d"/><rect x="507.7" y="136.9" width="2" height="2" fill="#30363d"/><rect x="507.7" y="147.5" width="2" height="2" fill="#30363d"/><rect x="504.4" y="154.8" width="8.6" height="8.6" rx="1.5" fill="#0e4429"><title>1 on 2026-07-15</title></rect><rect x="507.7" y="168.7" width="2" height="2" fill="#30363d"/><rect x="507.7" y="179.3" width="2" height="2" fill="#30363d"/><rect x="507.7" y="189.9" width="2" height="2" fill="#30363d"/><rect x="518.3" y="126.3" width="2" height="2" fill="#30363d"/><rect x="518.3" y="136.9" width="2" height="2" fill="#30363d"/><rect x="518.3" y="147.5" width="2" height="2" fill="#30363d"/><rect x="518.3" y="158.1" width="2" height="2" fill="#30363d"/><rect x="518.3" y="168.7" width="2" height="2" fill="#30363d"/><rect x="518.3" y="179.3" width="2" height="2" fill="#30363d"/><rect x="518.3" y="189.9" width="2" height="2" fill="#30363d"/><rect x="528.9" y="126.3" width="2" height="2" fill="#30363d"/><rect x="528.9" y="136.9" width="2" height="2" fill="#30363d"/><rect x="525.6" y="144.2" width="8.6" height="8.6" rx="1.5" fill="#0e4429"><title>1 on 2026-07-28</title></rect><rect x="528.9" y="158.1" width="2" height="2" fill="#30363d"/><rect x="528.9" y="168.7" width="2" height="2" fill="#30363d"/><rect x="528.9" y="179.3" width="2" height="2" fill="#30363d"/><rect x="528.9" y="189.9" width="2" height="2" fill="#30363d"/><rect x="539.5" y="126.3" width="2" height="2" fill="#30363d"/><rect x="539.5" y="136.9" width="2" height="2" fill="#30363d"/><rect x="539.5" y="147.5" width="2" height="2" fill="#30363d"/><rect x="539.5" y="158.1" width="2" height="2" fill="#30363d"/><rect x="536.2" y="165.4" width="8.6" height="8.6" rx="1.5" fill="#0e4429"><title>1 on 2026-08-06</title></rect><rect x="539.5" y="179.3" width="2" height="2" fill="#30363d"/><rect x="539.5" y="189.9" width="2" height="2" fill="#30363d"/><rect x="550.1" y="126.3" width="2" height="2" fill="#30363d"/><rect x="546.8" y="133.6" width="8.6" height="8.6" rx="1.5" fill="#39d353" filter="url(#glow)"><title>20 on 2026-08-10</title></rect><rect x="546.8" y="144.2" width="8.6" height="8.6" rx="1.5" fill="#39d353" filter="url(#glow)"><title>47 on 2026-08-11</title></rect><rect x="546.8" y="154.8" width="8.6" height="8.6" rx="1.5" fill="#39d353" filter="url(#glow)"><title>21 on 2026-08-12</title></rect><rect x="546.8" y="165.4" width="8.6" height="8.6" rx="1.5" fill="#39d353" filter="url(#glow)"><title>23 on 2026-08-13</title></rect><rect x="550.1" y="179.3" width="2" height="2" fill="#30363d"/><rect x="550.1" y="189.9" width="2" height="2" fill="#30363d"/><rect x="560.7" y="126.3" width="2" height="2" fill="#30363d"/><rect x="560.7" y="136.9" width="2" height="2" fill="#30363d"/><rect x="560.7" y="147.5" width="2" height="2" fill="#30363d"/><rect x="560.7" y="158.1" width="2" height="2" fill="#30363d"/><rect x="560.7" y="168.7" width="2" height="2" fill="#30363d"/><rect x="560.7" y="179.3" width="2" height="2" fill="#30363d"/><rect x="560.7" y="189.9" width="2" height="2" fill="#30363d"/><rect x="571.3" y="126.3" width="2" height="2" fill="#30363d"/><rect x="571.3" y="136.9" width="2" height="2" fill="#30363d"/><rect x="571.3" y="147.5" width="2" height="2" fill="#30363d"/><rect x="571.3" y="158.1" width="2" height="2" fill="#30363d"/><rect x="568" y="165.4" width="8.6" height="8.6" rx="1.5" fill="#0e4429"><title>2 on 2026-08-27</title></rect><rect x="568" y="176" width="8.6" height="8.6" rx="1.5" fill="#39d353" filter="url(#glow)"><title>26 on 2026-08-28</title></rect><rect x="568" y="186.6" width="8.6" height="8.6" rx="1.5" fill="#0e4429"><title>1 on 2026-08-29</title></rect><rect x="581.9" y="126.3" width="2" height="2" fill="#30363d"/><rect x="581.9" y="136.9" width="2" height="2" fill="#30363d"/><rect x="581.9" y="147.5" width="2" height="2" fill="#30363d"/><rect x="581.9" y="158.1" width="2" height="2" fill="#30363d"/><rect x="581.9" y="168.7" width="2" height="2" fill="#30363d"/><rect x="581.9" y="179.3" width="2" height="2" fill="#30363d"/><rect x="581.9" y="189.9" width="2" height="2" fill="#30363d"/><rect x="592.5" y="126.3" width="2" height="2" fill="#30363d"/><rect x="592.5" y="136.9" width="2" height="2" fill="#30363d"/><rect x="592.5" y="147.5" width="2" height="2" fill="#30363d"/><rect x="592.5" y="158.1" width="2" height="2" fill="#30363d"/><rect x="592.5" y="168.7" width="2" height="2" fill="#30363d"/><rect x="592.5" y="179.3" width="2" height="2" fill="#30363d"/><rect x="592.5" y="189.9" width="2" height="2" fill="#30363d"/><rect x="599.8" y="123" width="8.6" height="8.6" rx="1.5" fill="#0e4429"><title>1 on 2026-09-13</title></rect><rect x="603.1" y="136.9" width="2" height="2" fill="#30363d"/><rect x="599.8" y="144.2" width="8.6" height="8.6" rx="1.5" fill="#0e4429"><title>2 on 2026-09-15</title></rect><rect x="599.8" y="154.8" width="8.6" height="8.6" rx="1.5" fill="#0e4429"><title>3 on 2026-09-16</title></rect><rect x="603.1" y="168.7" width="2" height="2" fill="#30363d"/><rect x="603.1" y="179.3" width="2" height="2" fill="#30363d"/><rect x="603.1" y="189.9" width="2" height="2" fill="#30363d"/><rect x="613.7" y="126.3" width="2" height="2" fill="#30363d"/><rect x="613.7" y="136.9" width="2" height="2" fill="#30363d"/><rect x="613.7" y="147.5" width="2" height="2" fill="#30363d"/><rect x="613.7" y="158.1" width="2" height="2" fill="#30363d"/><rect x="610.4" y="165.4" width="8.6" height="8.6" rx="1.5" fill="#006d32"><title>7 on 2026-09-24</title></rect><rect x="610.4" y="176" width="8.6" height="8.6" rx="1.5" fill="#006d32"><title>8 on 2026-09-25</title></rect></g>
<rect x="631" y="100" width="1" height="148" fill="#30363d" class="m " style="animation-name:sep"/>
<g class="m " style="animation-name:s0"><text x="643" y="114" fill="#8b949e" textLength="85.8" lengthAdjust="spacing">commits....</text><text x="736.6" y="114" fill="#e3b341" textLength="23.4" lengthAdjust="spacing" font-weight="bold">276</text></g>
<g class="m " style="animation-name:s1"><text x="643" y="133" fill="#8b949e" textLength="85.8" lengthAdjust="spacing">active days</text><text x="736.6" y="133" fill="#3fb950" textLength="46.8" lengthAdjust="spacing" font-weight="bold">34/370</text></g>
<g class="m " style="animation-name:s2"><text x="643" y="152" fill="#8b949e" textLength="85.8" lengthAdjust="spacing">best day...</text><text x="736.6" y="152" fill="#ff7b72" textLength="85.8" lengthAdjust="spacing" font-weight="bold">47 (Aug 11)</text></g>
<g class="m " style="animation-name:s3"><text x="643" y="171" fill="#8b949e" textLength="85.8" lengthAdjust="spacing">streak max.</text><text x="736.6" y="171" fill="#bc8cff" textLength="46.8" lengthAdjust="spacing" font-weight="bold">4 days</text></g>
<g class="m " style="animation-name:s4"><text x="643" y="190" fill="#8b949e" textLength="85.8" lengthAdjust="spacing">streak now.</text><text x="736.6" y="190" fill="#bc8cff" textLength="46.8" lengthAdjust="spacing" font-weight="bold">2 days</text></g>
<g class="m " style="animation-name:s5"><text x="643" y="209" fill="#8b949e" textLength="85.8" lengthAdjust="spacing">top weekday</text><text x="736.6" y="209" fill="#58a6ff" textLength="23.4" lengthAdjust="spacing" font-weight="bold">Tue</text></g>
<g class="m " style="animation-name:s6"><text x="643" y="228" fill="#8b949e" textLength="85.8" lengthAdjust="spacing">top month..</text><text x="736.6" y="228" fill="#58a6ff" textLength="62.4" lengthAdjust="spacing" font-weight="bold">Aug 2026</text></g>
<g class="m " style="animation-name:bl"><text x="22" y="265" fill="#8b949e" textLength="70.2" lengthAdjust="spacing">per month</text></g>
<g class="m " style="animation-name:b0">
      <rect x="115.6" y="267" width="22" height="2" rx="2" fill="url(#barg)"><title>Sep 2025: 0</title></rect>
      <text x="126.6" y="281" text-anchor="middle" fill="#8b949e" class="xs">Sep</text>
      
    </g>
<g class="m " style="animation-name:b1">
      <rect x="143.6" y="267" width="22" height="2" rx="2" fill="url(#barg)"><title>Oct 2025: 0</title></rect>
      <text x="154.6" y="281" text-anchor="middle" fill="#8b949e" class="xs">Oct</text>
      
    </g>
<g class="m " style="animation-name:b2">
      <rect x="171.6" y="261.8" width="22" height="7.2" rx="2" fill="url(#barg)"><title>Nov 2025: 28</title></rect>
      <text x="182.6" y="281" text-anchor="middle" fill="#8b949e" class="xs">Nov</text>
      <text x="182.6" y="258.8" text-anchor="middle" fill="#c9d1d9" class="xs">28</text>
    </g>
<g class="m " style="animation-name:b3">
      <rect x="199.6" y="267" width="22" height="2" rx="2" fill="url(#barg)"><title>Dec 2025: 0</title></rect>
      <text x="210.6" y="281" text-anchor="middle" fill="#8b949e" class="xs">Dec</text>
      
    </g>
<g class="m " style="animation-name:b4">
      <rect x="227.6" y="267" width="22" height="2" rx="2" fill="url(#barg)"><title>Jan 2026: 0</title></rect>
      <text x="238.6" y="281" text-anchor="middle" fill="#8b949e" class="xs">Jan</text>
      
    </g>
<g class="m " style="animation-name:b5">
      <rect x="255.6" y="267" width="22" height="2" rx="2" fill="url(#barg)"><title>Feb 2026: 0</title></rect>
      <text x="266.6" y="281" text-anchor="middle" fill="#8b949e" class="xs">Feb</text>
      
    </g>
<g class="m " style="animation-name:b6">
      <rect x="283.6" y="260.7" width="22" height="8.3" rx="2" fill="url(#barg)"><title>Mar 2026: 34</title></rect>
      <text x="294.6" y="281" text-anchor="middle" fill="#8b949e" class="xs">Mar</text>
      <text x="294.6" y="257.7" text-anchor="middle" fill="#c9d1d9" class="xs">34</text>
    </g>
<g class="m " style="animation-name:b7">
      <rect x="311.6" y="262.2" width="22" height="6.8" rx="2" fill="url(#barg)"><title>Apr 2026: 26</title></rect>
      <text x="322.6" y="281" text-anchor="middle" fill="#8b949e" class="xs">Apr</text>
      <text x="322.6" y="259.2" text-anchor="middle" fill="#c9d1d9" class="xs">26</text>
    </g>
<g class="m " style="animation-name:b8">
      <rect x="339.6" y="263.5" width="22" height="5.5" rx="2" fill="url(#barg)"><title>May 2026: 19</title></rect>
      <text x="350.6" y="281" text-anchor="middle" fill="#8b949e" class="xs">May</text>
      <text x="350.6" y="260.5" text-anchor="middle" fill="#c9d1d9" class="xs">19</text>
    </g>
<g class="m " style="animation-name:b9">
      <rect x="367.6" y="266.3" width="22" height="2.7" rx="2" fill="url(#barg)"><title>Jun 2026: 4</title></rect>
      <text x="378.6" y="281" text-anchor="middle" fill="#8b949e" class="xs">Jun</text>
      <text x="378.6" y="263.3" text-anchor="middle" fill="#c9d1d9" class="xs">4</text>
    </g>
<g class="m " style="animation-name:b10">
      <rect x="395.6" y="266.4" width="22" height="2.6" rx="2" fill="url(#barg)"><title>Jul 2026: 3</title></rect>
      <text x="406.6" y="281" text-anchor="middle" fill="#8b949e" class="xs">Jul</text>
      <text x="406.6" y="263.4" text-anchor="middle" fill="#c9d1d9" class="xs">3</text>
    </g>
<g class="m " style="animation-name:b11">
      <rect x="423.6" y="241" width="22" height="28" rx="2" fill="url(#barg)"><title>Aug 2026: 141</title></rect>
      <text x="434.6" y="281" text-anchor="middle" fill="#e3b341" class="xs">Aug</text>
      <text x="434.6" y="238" text-anchor="middle" fill="#c9d1d9" class="xs">141</text>
    </g>
<g class="m " style="animation-name:b12">
      <rect x="451.6" y="263.1" width="22" height="5.9" rx="2" fill="url(#barg)"><title>Sep 2026: 21</title></rect>
      <text x="462.6" y="281" text-anchor="middle" fill="#8b949e" class="xs">Sep</text>
      <text x="462.6" y="260.1" text-anchor="middle" fill="#c9d1d9" class="xs">21</text>
    </g>
<g class="m " style="animation-name:avg"><text x="495.6" y="265" fill="#8b949e" textLength="140.4" lengthAdjust="spacing">avg 8.1/active day</text></g>
<g class="m " style="animation-name:p2"><text x="22" y="303" fill="#3fb950" textLength="156" lengthAdjust="spacing">qwerty-ll@github ~ %</text><rect x="185.8" y="291" width="7.8" height="15" fill="#c9d1d9" style="animation:blink 1s steps(1) infinite"/></g>
  <rect width="860" height="317" rx="12" fill="none" stroke="#30363d"/>
  </g>
  </svg>